<svg width="340" height="700" viewBox="0 0 340 700" fill="none" xmlns="http://www.w3.org/2000/svg">
<rect width="340" height="700" fill="white"/>
<g clip-path="url(#clip0_0_1)">
<path d="M290 560H305" stroke="black" stroke-width="2" stroke-linecap="square"/>
<path d="M190 560V660" stroke="black" stroke-width="2" stroke-linecap="square"/>
<path d="M290 560V660" stroke="black" stroke-width="2" stroke-linecap="square"/>
<path d="M240 560H290" stroke="black" stroke-width="2" stroke-linecap="square"/>
<path d="M240 610H290" stroke="black" stroke-width="2" stroke-linecap="square"/>
<path d="M240 660H245" stroke="black" stroke-width="2" stroke-linecap="square"/>
<path d="M285 660H290" stroke="black" stroke-width="2" stroke-linecap="square"/>
<path d="M245 660H247L250 653L256 667L262 653L268 667L274 653L280 667L283 660H285" stroke="black" stroke-width="2" stroke-linecap="square"/>
<path d="M257.141 638V646H256.172V639.016H256.125L254.172 640.312V639.328L256.172 638H257.141ZM263.41 643.812L263.395 642.672H263.582L266.207 640H267.348L264.551 642.828H264.473L263.41 643.812ZM262.551 646V638H263.473V646H262.551ZM266.363 646L264.02 643.031L264.676 642.391L267.535 646H266.363ZM268.347 646V645.141H270.019V645.078C269.503 644.742 269.095 644.298 268.796 643.746C268.496 643.194 268.347 642.539 268.347 641.781C268.347 641.211 268.433 640.689 268.604 640.215C268.779 639.738 269.024 639.327 269.339 638.98C269.654 638.634 270.026 638.366 270.456 638.176C270.888 637.986 271.362 637.891 271.878 637.891C272.394 637.891 272.866 637.986 273.296 638.176C273.728 638.366 274.102 638.634 274.417 638.98C274.732 639.327 274.976 639.738 275.147 640.215C275.322 640.689 275.409 641.211 275.409 641.781C275.409 642.539 275.259 643.194 274.96 643.746C274.66 644.298 274.253 644.742 273.737 645.078V645.141H275.409V646H272.565V644.906C272.909 644.76 273.226 644.538 273.515 644.238C273.804 643.936 274.035 643.577 274.21 643.16C274.384 642.741 274.472 642.281 274.472 641.781C274.472 641.224 274.361 640.72 274.14 640.27C273.918 639.819 273.612 639.461 273.222 639.195C272.831 638.93 272.383 638.797 271.878 638.797C271.5 638.797 271.153 638.874 270.835 639.027C270.517 639.178 270.243 639.391 270.011 639.664C269.782 639.935 269.603 640.251 269.476 640.613C269.348 640.973 269.284 641.362 269.284 641.781C269.284 642.281 269.371 642.741 269.546 643.16C269.72 643.577 269.952 643.936 270.241 644.238C270.53 644.538 270.847 644.76 271.19 644.906V646H268.347Z" fill="black"/>
<path d="M190 660H195" stroke="black" stroke-width="2" stroke-linecap="square"/>
<path d="M235 660H240" stroke="black" stroke-width="2" stroke-linecap="square"/>
<path d="M195 660H197L200 653L206 667L212 653L218 667L224 653L230 667L233 660H235" stroke="black" stroke-width="2" stroke-linecap="square"/>
<path d="M207.141 638V646H206.172V639.016H206.125L204.172 640.312V639.328L206.172 638H207.141ZM213.41 643.812L213.395 642.672H213.582L216.207 640H217.348L214.551 642.828H214.473L213.41 643.812ZM212.551 646V638H213.473V646H212.551ZM216.363 646L214.02 643.031L214.676 642.391L217.535 646H216.363ZM218.347 646V645.141H220.019V645.078C219.503 644.742 219.095 644.298 218.796 643.746C218.496 643.194 218.347 642.539 218.347 641.781C218.347 641.211 218.433 640.689 218.604 640.215C218.779 639.738 219.024 639.327 219.339 638.98C219.654 638.634 220.026 638.366 220.456 638.176C220.888 637.986 221.362 637.891 221.878 637.891C222.394 637.891 222.866 637.986 223.296 638.176C223.728 638.366 224.102 638.634 224.417 638.98C224.732 639.327 224.976 639.738 225.147 640.215C225.322 640.689 225.409 641.211 225.409 641.781C225.409 642.539 225.259 643.194 224.96 643.746C224.66 644.298 224.253 644.742 223.737 645.078V645.141H225.409V646H222.565V644.906C222.909 644.76 223.226 644.538 223.515 644.238C223.804 643.936 224.035 643.577 224.21 643.16C224.384 642.741 224.472 642.281 224.472 641.781C224.472 641.224 224.361 640.72 224.14 640.27C223.918 639.819 223.612 639.461 223.222 639.195C222.831 638.93 222.383 638.797 221.878 638.797C221.5 638.797 221.153 638.874 220.835 639.027C220.517 639.178 220.243 639.391 220.011 639.664C219.782 639.935 219.603 640.251 219.476 640.613C219.348 640.973 219.284 641.362 219.284 641.781C219.284 642.281 219.371 642.741 219.546 643.16C219.72 643.577 219.952 643.936 220.241 644.238C220.53 644.538 220.847 644.76 221.19 644.906V646H218.347Z" fill="black"/>
<path d="M190 610H195" stroke="black" stroke-width="2" stroke-linecap="square"/>
<path d="M235 610H240" stroke="black" stroke-width="2" stroke-linecap="square"/>
<path d="M195 610H197L200 603L206 617L212 603L218 617L224 603L230 617L233 610H235" stroke="black" stroke-width="2" stroke-linecap="square"/>
<path d="M203.328 596V595.297L205.969 592.406C206.279 592.068 206.534 591.773 206.734 591.523C206.935 591.271 207.083 591.034 207.18 590.812C207.279 590.589 207.328 590.354 207.328 590.109C207.328 589.828 207.26 589.585 207.125 589.379C206.992 589.173 206.81 589.014 206.578 588.902C206.346 588.79 206.086 588.734 205.797 588.734C205.49 588.734 205.221 588.798 204.992 588.926C204.766 589.051 204.59 589.227 204.465 589.453C204.342 589.68 204.281 589.945 204.281 590.25H203.359C203.359 589.781 203.467 589.37 203.684 589.016C203.9 588.661 204.194 588.385 204.566 588.187C204.941 587.99 205.362 587.891 205.828 587.891C206.297 587.891 206.712 587.99 207.074 588.187C207.436 588.385 207.72 588.652 207.926 588.988C208.132 589.324 208.234 589.698 208.234 590.109C208.234 590.404 208.181 590.691 208.074 590.973C207.97 591.251 207.788 591.562 207.527 591.906C207.27 592.247 206.911 592.664 206.453 593.156L204.656 595.078V595.141H208.375V596H203.328ZM213.957 593.812L213.941 592.672H214.129L216.754 590H217.895L215.098 592.828H215.02L213.957 593.812ZM213.098 596V588H214.02V596H213.098ZM216.91 596L214.566 593.031L215.223 592.391L218.082 596H216.91ZM218.894 596V595.141H220.565V595.078C220.05 594.742 219.642 594.298 219.343 593.746C219.043 593.194 218.894 592.539 218.894 591.781C218.894 591.211 218.979 590.689 219.151 590.215C219.326 589.738 219.571 589.327 219.886 588.98C220.201 588.634 220.573 588.366 221.003 588.176C221.435 587.986 221.909 587.891 222.425 587.891C222.94 587.891 223.413 587.986 223.843 588.176C224.275 588.366 224.649 588.634 224.964 588.98C225.279 589.327 225.522 589.738 225.694 590.215C225.869 590.689 225.956 591.211 225.956 591.781C225.956 592.539 225.806 593.194 225.507 593.746C225.207 594.298 224.8 594.742 224.284 595.078V595.141H225.956V596H223.112V594.906C223.456 594.76 223.772 594.538 224.062 594.238C224.351 593.936 224.582 593.577 224.757 593.16C224.931 592.741 225.019 592.281 225.019 591.781C225.019 591.224 224.908 590.72 224.687 590.27C224.465 589.819 224.159 589.461 223.769 589.195C223.378 588.93 222.93 588.797 222.425 588.797C222.047 588.797 221.7 588.874 221.382 589.027C221.064 589.178 220.789 589.391 220.558 589.664C220.328 589.935 220.15 590.251 220.022 590.613C219.895 590.973 219.831 591.362 219.831 591.781C219.831 592.281 219.918 592.741 220.093 593.16C220.267 593.577 220.499 593.936 220.788 594.238C221.077 594.538 221.394 594.76 221.737 594.906V596H218.894Z" fill="black"/>
<path d="M190 560H195" stroke="black" stroke-width="2" stroke-linecap="square"/>
<path d="M235 560H240" stroke="black" stroke-width="2" stroke-linecap="square"/>
<path d="M195 560H197L200 553L206 567L212 553L218 567L224 553L230 567L233 560H235" stroke="black" stroke-width="2" stroke-linecap="square"/>
<path d="M202.328 546.109C201.87 546.109 201.457 546.018 201.09 545.836C200.723 545.654 200.428 545.404 200.207 545.086C199.986 544.768 199.865 544.406 199.844 544H200.781C200.818 544.362 200.982 544.661 201.273 544.898C201.568 545.133 201.919 545.25 202.328 545.25C202.656 545.25 202.948 545.173 203.203 545.02C203.461 544.866 203.663 544.655 203.809 544.387C203.957 544.116 204.031 543.81 204.031 543.469C204.031 543.12 203.954 542.809 203.801 542.535C203.65 542.259 203.441 542.042 203.176 541.883C202.91 541.724 202.607 541.643 202.266 541.641C202.021 541.638 201.77 541.676 201.512 541.754C201.254 541.829 201.042 541.927 200.875 542.047L199.969 541.937L200.453 538H204.609V538.859H201.266L200.984 541.219H201.031C201.195 541.089 201.401 540.98 201.648 540.895C201.896 540.809 202.154 540.766 202.422 540.766C202.911 540.766 203.348 540.883 203.73 541.117C204.116 541.349 204.418 541.667 204.637 542.07C204.858 542.474 204.969 542.935 204.969 543.453C204.969 543.964 204.854 544.419 204.625 544.82C204.398 545.219 204.086 545.534 203.688 545.766C203.289 545.995 202.836 546.109 202.328 546.109ZM209.13 546.109C208.541 546.109 208.04 545.949 207.626 545.629C207.212 545.306 206.896 544.839 206.677 544.227C206.458 543.612 206.349 542.87 206.349 542C206.349 541.135 206.458 540.397 206.677 539.785C206.898 539.171 207.216 538.702 207.63 538.379C208.047 538.053 208.547 537.891 209.13 537.891C209.713 537.891 210.212 538.053 210.626 538.379C211.043 538.702 211.36 539.171 211.579 539.785C211.8 540.397 211.911 541.135 211.911 542C211.911 542.87 211.802 543.612 211.583 544.227C211.364 544.839 211.048 545.306 210.634 545.629C210.22 545.949 209.718 546.109 209.13 546.109ZM209.13 545.25C209.713 545.25 210.166 544.969 210.489 544.406C210.812 543.844 210.974 543.042 210.974 542C210.974 541.307 210.899 540.717 210.751 540.23C210.605 539.743 210.394 539.372 210.118 539.117C209.845 538.862 209.515 538.734 209.13 538.734C208.552 538.734 208.1 539.02 207.774 539.59C207.449 540.158 207.286 540.961 207.286 542C207.286 542.693 207.359 543.281 207.505 543.766C207.651 544.25 207.86 544.618 208.134 544.871C208.41 545.124 208.742 545.25 209.13 545.25ZM216.005 546.109C215.416 546.109 214.915 545.949 214.501 545.629C214.087 545.306 213.771 544.839 213.552 544.227C213.333 543.612 213.224 542.87 213.224 542C213.224 541.135 213.333 540.397 213.552 539.785C213.773 539.171 214.091 538.702 214.505 538.379C214.922 538.053 215.422 537.891 216.005 537.891C216.588 537.891 217.087 538.053 217.501 538.379C217.918 538.702 218.235 539.171 218.454 539.785C218.675 540.397 218.786 541.135 218.786 542C218.786 542.87 218.677 543.612 218.458 544.227C218.239 544.839 217.923 545.306 217.509 545.629C217.095 545.949 216.593 546.109 216.005 546.109ZM216.005 545.25C216.588 545.25 217.041 544.969 217.364 544.406C217.687 543.844 217.849 543.042 217.849 542C217.849 541.307 217.774 540.717 217.626 540.23C217.48 539.743 217.269 539.372 216.993 539.117C216.72 538.862 216.39 538.734 216.005 538.734C215.427 538.734 214.975 539.02 214.649 539.59C214.324 540.158 214.161 540.961 214.161 542C214.161 542.693 214.234 543.281 214.38 543.766C214.526 544.25 214.735 544.618 215.009 544.871C215.285 545.124 215.617 545.25 216.005 545.25ZM223.192 546V545.141H224.864V545.078C224.349 544.742 223.941 544.298 223.642 543.746C223.342 543.194 223.192 542.539 223.192 541.781C223.192 541.211 223.278 540.689 223.45 540.215C223.625 539.738 223.869 539.327 224.185 538.98C224.5 538.634 224.872 538.366 225.302 538.176C225.734 537.986 226.208 537.891 226.724 537.891C227.239 537.891 227.712 537.986 228.142 538.176C228.574 538.366 228.948 538.634 229.263 538.98C229.578 539.327 229.821 539.738 229.993 540.215C230.168 540.689 230.255 541.211 230.255 541.781C230.255 542.539 230.105 543.194 229.806 543.746C229.506 544.298 229.099 544.742 228.583 545.078V545.141H230.255V546H227.411V544.906C227.755 544.76 228.071 544.538 228.36 544.238C228.649 543.936 228.881 543.577 229.056 543.16C229.23 542.741 229.317 542.281 229.317 541.781C229.317 541.224 229.207 540.72 228.985 540.27C228.764 539.819 228.458 539.461 228.067 539.195C227.677 538.93 227.229 538.797 226.724 538.797C226.346 538.797 225.998 538.874 225.681 539.027C225.363 539.178 225.088 539.391 224.856 539.664C224.627 539.935 224.449 540.251 224.321 540.613C224.194 540.973 224.13 541.362 224.13 541.781C224.13 542.281 224.217 542.741 224.392 543.16C224.566 543.577 224.798 543.936 225.087 544.238C225.376 544.538 225.692 544.76 226.036 544.906V546H223.192Z" fill="black"/>
<path d="M140 560H190" stroke="black" stroke-width="2" stroke-linecap="square"/>
<path d="M20 560H90" stroke="black" stroke-width="2" stroke-linecap="square"/>
<path d="M90 560H95" stroke="black" stroke-width="2" stroke-linecap="square"/>
<path d="M135 560H140" stroke="black" stroke-width="2" stroke-linecap="square"/>
<path d="M95 560H97L100 553L106 567L112 553L118 567L124 553L130 567L133 560H135" stroke="black" stroke-width="2" stroke-linecap="square"/>
<path d="M103.328 546V545.297L105.969 542.406C106.279 542.068 106.534 541.773 106.734 541.523C106.935 541.271 107.083 541.034 107.18 540.812C107.279 540.589 107.328 540.354 107.328 540.109C107.328 539.828 107.26 539.585 107.125 539.379C106.992 539.173 106.81 539.014 106.578 538.902C106.346 538.79 106.086 538.734 105.797 538.734C105.49 538.734 105.221 538.798 104.992 538.926C104.766 539.051 104.59 539.227 104.465 539.453C104.342 539.68 104.281 539.945 104.281 540.25H103.359C103.359 539.781 103.467 539.37 103.684 539.016C103.9 538.661 104.194 538.385 104.566 538.187C104.941 537.99 105.362 537.891 105.828 537.891C106.297 537.891 106.712 537.99 107.074 538.187C107.436 538.385 107.72 538.652 107.926 538.988C108.132 539.324 108.234 539.698 108.234 540.109C108.234 540.404 108.181 540.691 108.074 540.973C107.97 541.251 107.788 541.562 107.527 541.906C107.27 542.247 106.911 542.664 106.453 543.156L104.656 545.078V545.141H108.375V546H103.328ZM113.957 543.812L113.941 542.672H114.129L116.754 540H117.895L115.098 542.828H115.02L113.957 543.812ZM113.098 546V538H114.02V546H113.098ZM116.91 546L114.566 543.031L115.223 542.391L118.082 546H116.91ZM118.894 546V545.141H120.565V545.078C120.05 544.742 119.642 544.298 119.343 543.746C119.043 543.194 118.894 542.539 118.894 541.781C118.894 541.211 118.979 540.689 119.151 540.215C119.326 539.738 119.571 539.327 119.886 538.98C120.201 538.634 120.573 538.366 121.003 538.176C121.435 537.986 121.909 537.891 122.425 537.891C122.94 537.891 123.413 537.986 123.843 538.176C124.275 538.366 124.649 538.634 124.964 538.98C125.279 539.327 125.522 539.738 125.694 540.215C125.869 540.689 125.956 541.211 125.956 541.781C125.956 542.539 125.806 543.194 125.507 543.746C125.207 544.298 124.8 544.742 124.284 545.078V545.141H125.956V546H123.112V544.906C123.456 544.76 123.772 544.538 124.062 544.238C124.351 543.936 124.582 543.577 124.757 543.16C124.931 542.741 125.019 542.281 125.019 541.781C125.019 541.224 124.908 540.72 124.687 540.27C124.465 539.819 124.159 539.461 123.769 539.195C123.378 538.93 122.93 538.797 122.425 538.797C122.047 538.797 121.7 538.874 121.382 539.027C121.064 539.178 120.789 539.391 120.558 539.664C120.328 539.935 120.15 540.251 120.022 540.613C119.895 540.973 119.831 541.362 119.831 541.781C119.831 542.281 119.918 542.741 120.093 543.16C120.267 543.577 120.499 543.936 120.788 544.238C121.077 544.538 121.394 544.76 121.737 544.906V546H118.894Z" fill="black"/>
<path d="M20 480H40" stroke="black" stroke-width="2" stroke-linecap="square"/>
<path d="M40 480H45" stroke="black" stroke-width="2" stroke-linecap="square"/>
<path d="M85 480H90" stroke="black" stroke-width="2" stroke-linecap="square"/>
<path d="M45 480H47L50 473L56 487L62 473L68 487L74 473L80 487L83 480H85" stroke="black" stroke-width="2" stroke-linecap="square"/>
<path d="M53.3281 466V465.297L55.9687 462.406C56.2786 462.068 56.5339 461.773 56.7344 461.523C56.9349 461.271 57.0833 461.034 57.1797 460.812C57.2786 460.589 57.3281 460.354 57.3281 460.109C57.3281 459.828 57.2604 459.585 57.125 459.379C56.9922 459.173 56.8099 459.014 56.5781 458.902C56.3464 458.79 56.0859 458.734 55.7969 458.734C55.4896 458.734 55.2214 458.798 54.9922 458.926C54.7656 459.051 54.5898 459.227 54.4648 459.453C54.3424 459.68 54.2813 459.945 54.2813 460.25H53.3594C53.3594 459.781 53.4674 459.37 53.6836 459.016C53.8997 458.661 54.194 458.385 54.5664 458.187C54.9414 457.99 55.362 457.891 55.8281 457.891C56.2969 457.891 56.7122 457.99 57.0742 458.187C57.4362 458.385 57.7201 458.652 57.9258 458.988C58.1315 459.324 58.2344 459.698 58.2344 460.109C58.2344 460.404 58.181 460.691 58.0742 460.973C57.9701 461.251 57.7878 461.562 57.5273 461.906C57.2695 462.247 56.9115 462.664 56.4531 463.156L54.6563 465.078V465.141H58.375V466H53.3281ZM63.957 463.812L63.9414 462.672H64.1289L66.7539 460H67.8945L65.0977 462.828H65.0195L63.957 463.812ZM63.0977 466V458H64.0195V466H63.0977ZM66.9102 466L64.5664 463.031L65.2227 462.391L68.082 466H66.9102ZM68.8936 466V465.141H70.5654V465.078C70.0498 464.742 69.6423 464.298 69.3428 463.746C69.0433 463.194 68.8936 462.539 68.8936 461.781C68.8936 461.211 68.9795 460.689 69.1514 460.215C69.3258 459.738 69.5706 459.327 69.8857 458.98C70.2008 458.634 70.5732 458.366 71.0029 458.176C71.4352 457.986 71.9092 457.891 72.4248 457.891C72.9404 457.891 73.4131 457.986 73.8428 458.176C74.2751 458.366 74.6488 458.634 74.9639 458.98C75.279 459.327 75.5225 459.738 75.6943 460.215C75.8688 460.689 75.9561 461.211 75.9561 461.781C75.9561 462.539 75.8063 463.194 75.5068 463.746C75.2074 464.298 74.7998 464.742 74.2842 465.078V465.141H75.9561V466H73.1123V464.906C73.4561 464.76 73.7725 464.538 74.0615 464.238C74.3506 463.936 74.5824 463.577 74.7568 463.16C74.9313 462.741 75.0186 462.281 75.0186 461.781C75.0186 461.224 74.9079 460.72 74.6865 460.27C74.4652 459.819 74.1592 459.461 73.7686 459.195C73.3779 458.93 72.93 458.797 72.4248 458.797C72.0472 458.797 71.6995 458.874 71.3818 459.027C71.0641 459.178 70.7894 459.391 70.5576 459.664C70.3285 459.935 70.1501 460.251 70.0225 460.613C69.8949 460.973 69.8311 461.362 69.8311 461.781C69.8311 462.281 69.9183 462.741 70.0928 463.16C70.2673 463.577 70.499 463.936 70.7881 464.238C71.0771 464.538 71.3936 464.76 71.7373 464.906V466H68.8936Z" fill="black"/>
<path d="M90 480H95" stroke="black" stroke-width="2" stroke-linecap="square"/>
<path d="M135 480H140" stroke="black" stroke-width="2" stroke-linecap="square"/>
<path d="M95 480H97L100 473L106 487L112 473L118 487L124 473L130 487L133 480H135" stroke="black" stroke-width="2" stroke-linecap="square"/>
<path d="M103.328 466V465.297L105.969 462.406C106.279 462.068 106.534 461.773 106.734 461.523C106.935 461.271 107.083 461.034 107.18 460.812C107.279 460.589 107.328 460.354 107.328 460.109C107.328 459.828 107.26 459.585 107.125 459.379C106.992 459.173 106.81 459.014 106.578 458.902C106.346 458.79 106.086 458.734 105.797 458.734C105.49 458.734 105.221 458.798 104.992 458.926C104.766 459.051 104.59 459.227 104.465 459.453C104.342 459.68 104.281 459.945 104.281 460.25H103.359C103.359 459.781 103.467 459.37 103.684 459.016C103.9 458.661 104.194 458.385 104.566 458.187C104.941 457.99 105.362 457.891 105.828 457.891C106.297 457.891 106.712 457.99 107.074 458.187C107.436 458.385 107.72 458.652 107.926 458.988C108.132 459.324 108.234 459.698 108.234 460.109C108.234 460.404 108.181 460.691 108.074 460.973C107.97 461.251 107.788 461.562 107.527 461.906C107.27 462.247 106.911 462.664 106.453 463.156L104.656 465.078V465.141H108.375V466H103.328ZM113.957 463.812L113.941 462.672H114.129L116.754 460H117.895L115.098 462.828H115.02L113.957 463.812ZM113.098 466V458H114.02V466H113.098ZM116.91 466L114.566 463.031L115.223 462.391L118.082 466H116.91ZM118.894 466V465.141H120.565V465.078C120.05 464.742 119.642 464.298 119.343 463.746C119.043 463.194 118.894 462.539 118.894 461.781C118.894 461.211 118.979 460.689 119.151 460.215C119.326 459.738 119.571 459.327 119.886 458.98C120.201 458.634 120.573 458.366 121.003 458.176C121.435 457.986 121.909 457.891 122.425 457.891C122.94 457.891 123.413 457.986 123.843 458.176C124.275 458.366 124.649 458.634 124.964 458.98C125.279 459.327 125.522 459.738 125.694 460.215C125.869 460.689 125.956 461.211 125.956 461.781C125.956 462.539 125.806 463.194 125.507 463.746C125.207 464.298 124.8 464.742 124.284 465.078V465.141H125.956V466H123.112V464.906C123.456 464.76 123.772 464.538 124.062 464.238C124.351 463.936 124.582 463.577 124.757 463.16C124.931 462.741 125.019 462.281 125.019 461.781C125.019 461.224 124.908 460.72 124.687 460.27C124.465 459.819 124.159 459.461 123.769 459.195C123.378 458.93 122.93 458.797 122.425 458.797C122.047 458.797 121.7 458.874 121.382 459.027C121.064 459.178 120.789 459.391 120.558 459.664C120.328 459.935 120.15 460.251 120.022 460.613C119.895 460.973 119.831 461.362 119.831 461.781C119.831 462.281 119.918 462.741 120.093 463.16C120.267 463.577 120.499 463.936 120.788 464.238C121.077 464.538 121.394 464.76 121.737 464.906V466H118.894Z" fill="black"/>
<path d="M140 480H190" stroke="black" stroke-width="2" stroke-linecap="square"/>
<path d="M240 480H305" stroke="black" stroke-width="2" stroke-linecap="square"/>
<path d="M240 460V510" stroke="black" stroke-width="2" stroke-linecap="square"/>
<path d="M190 460V510" stroke="black" stroke-width="2" stroke-linecap="square"/>
<path d="M190 510H195" stroke="black" stroke-width="2" stroke-linecap="square"/>
<path d="M235 510H240" stroke="black" stroke-width="2" stroke-linecap="square"/>
<path d="M195 510H197L200 503L206 517L212 503L218 517L224 503L230 517L233 510H235" stroke="black" stroke-width="2" stroke-linecap="square"/>
<path d="M207.141 488V496H206.172V489.016H206.125L204.172 490.312V489.328L206.172 488H207.141ZM213.41 493.812L213.395 492.672H213.582L216.207 490H217.348L214.551 492.828H214.473L213.41 493.812ZM212.551 496V488H213.473V496H212.551ZM216.363 496L214.02 493.031L214.676 492.391L217.535 496H216.363ZM218.347 496V495.141H220.019V495.078C219.503 494.742 219.095 494.298 218.796 493.746C218.496 493.194 218.347 492.539 218.347 491.781C218.347 491.211 218.433 490.689 218.604 490.215C218.779 489.738 219.024 489.327 219.339 488.98C219.654 488.634 220.026 488.366 220.456 488.176C220.888 487.986 221.362 487.891 221.878 487.891C222.394 487.891 222.866 487.986 223.296 488.176C223.728 488.366 224.102 488.634 224.417 488.98C224.732 489.327 224.976 489.738 225.147 490.215C225.322 490.689 225.409 491.211 225.409 491.781C225.409 492.539 225.259 493.194 224.96 493.746C224.66 494.298 224.253 494.742 223.737 495.078V495.141H225.409V496H222.565V494.906C222.909 494.76 223.226 494.538 223.515 494.238C223.804 493.936 224.035 493.577 224.21 493.16C224.384 492.741 224.472 492.281 224.472 491.781C224.472 491.224 224.361 490.72 224.14 490.27C223.918 489.819 223.612 489.461 223.222 489.195C222.831 488.93 222.383 488.797 221.878 488.797C221.5 488.797 221.153 488.874 220.835 489.027C220.517 489.178 220.243 489.391 220.011 489.664C219.782 489.935 219.603 490.251 219.476 490.613C219.348 490.973 219.284 491.362 219.284 491.781C219.284 492.281 219.371 492.741 219.546 493.16C219.72 493.577 219.952 493.936 220.241 494.238C220.53 494.538 220.847 494.76 221.19 494.906V496H218.347Z" fill="black"/>
<path d="M190 460H195" stroke="black" stroke-width="2" stroke-linecap="square"/>
<path d="M235 460H240" stroke="black" stroke-width="2" stroke-linecap="square"/>
<path d="M195 460H197L200 453L206 467L212 453L218 467L224 453L230 467L233 460H235" stroke="black" stroke-width="2" stroke-linecap="square"/>
<path d="M202.328 446.109C201.87 446.109 201.457 446.018 201.09 445.836C200.723 445.654 200.428 445.404 200.207 445.086C199.986 444.768 199.865 444.406 199.844 444H200.781C200.818 444.362 200.982 444.661 201.273 444.898C201.568 445.133 201.919 445.25 202.328 445.25C202.656 445.25 202.948 445.173 203.203 445.02C203.461 444.866 203.663 444.655 203.809 444.387C203.957 444.116 204.031 443.81 204.031 443.469C204.031 443.12 203.954 442.809 203.801 442.535C203.65 442.259 203.441 442.042 203.176 441.883C202.91 441.724 202.607 441.643 202.266 441.641C202.021 441.638 201.77 441.676 201.512 441.754C201.254 441.829 201.042 441.927 200.875 442.047L199.969 441.937L200.453 438H204.609V438.859H201.266L200.984 441.219H201.031C201.195 441.089 201.401 440.98 201.648 440.895C201.896 440.809 202.154 440.766 202.422 440.766C202.911 440.766 203.348 440.883 203.73 441.117C204.116 441.349 204.418 441.667 204.637 442.07C204.858 442.474 204.969 442.935 204.969 443.453C204.969 443.964 204.854 444.419 204.625 444.82C204.398 445.219 204.086 445.534 203.688 445.766C203.289 445.995 202.836 446.109 202.328 446.109ZM209.13 446.109C208.541 446.109 208.04 445.949 207.626 445.629C207.212 445.306 206.896 444.839 206.677 444.227C206.458 443.612 206.349 442.87 206.349 442C206.349 441.135 206.458 440.397 206.677 439.785C206.898 439.171 207.216 438.702 207.63 438.379C208.047 438.053 208.547 437.891 209.13 437.891C209.713 437.891 210.212 438.053 210.626 438.379C211.043 438.702 211.36 439.171 211.579 439.785C211.8 440.397 211.911 441.135 211.911 442C211.911 442.87 211.802 443.612 211.583 444.227C211.364 444.839 211.048 445.306 210.634 445.629C210.22 445.949 209.718 446.109 209.13 446.109ZM209.13 445.25C209.713 445.25 210.166 444.969 210.489 444.406C210.812 443.844 210.974 443.042 210.974 442C210.974 441.307 210.899 440.717 210.751 440.23C210.605 439.743 210.394 439.372 210.118 439.117C209.845 438.862 209.515 438.734 209.13 438.734C208.552 438.734 208.1 439.02 207.774 439.59C207.449 440.158 207.286 440.961 207.286 442C207.286 442.693 207.359 443.281 207.505 443.766C207.651 444.25 207.86 444.618 208.134 444.871C208.41 445.124 208.742 445.25 209.13 445.25ZM216.005 446.109C215.416 446.109 214.915 445.949 214.501 445.629C214.087 445.306 213.771 444.839 213.552 444.227C213.333 443.612 213.224 442.87 213.224 442C213.224 441.135 213.333 440.397 213.552 439.785C213.773 439.171 214.091 438.702 214.505 438.379C214.922 438.053 215.422 437.891 216.005 437.891C216.588 437.891 217.087 438.053 217.501 438.379C217.918 438.702 218.235 439.171 218.454 439.785C218.675 440.397 218.786 441.135 218.786 442C218.786 442.87 218.677 443.612 218.458 444.227C218.239 444.839 217.923 445.306 217.509 445.629C217.095 445.949 216.593 446.109 216.005 446.109ZM216.005 445.25C216.588 445.25 217.041 444.969 217.364 444.406C217.687 443.844 217.849 443.042 217.849 442C217.849 441.307 217.774 440.717 217.626 440.23C217.48 439.743 217.269 439.372 216.993 439.117C216.72 438.862 216.39 438.734 216.005 438.734C215.427 438.734 214.975 439.02 214.649 439.59C214.324 440.158 214.161 440.961 214.161 442C214.161 442.693 214.234 443.281 214.38 443.766C214.526 444.25 214.735 444.618 215.009 444.871C215.285 445.124 215.617 445.25 216.005 445.25ZM223.192 446V445.141H224.864V445.078C224.349 444.742 223.941 444.298 223.642 443.746C223.342 443.194 223.192 442.539 223.192 441.781C223.192 441.211 223.278 440.689 223.45 440.215C223.625 439.738 223.869 439.327 224.185 438.98C224.5 438.634 224.872 438.366 225.302 438.176C225.734 437.986 226.208 437.891 226.724 437.891C227.239 437.891 227.712 437.986 228.142 438.176C228.574 438.366 228.948 438.634 229.263 438.98C229.578 439.327 229.821 439.738 229.993 440.215C230.168 440.689 230.255 441.211 230.255 441.781C230.255 442.539 230.105 443.194 229.806 443.746C229.506 444.298 229.099 444.742 228.583 445.078V445.141H230.255V446H227.411V444.906C227.755 444.76 228.071 444.538 228.36 444.238C228.649 443.936 228.881 443.577 229.056 443.16C229.23 442.741 229.317 442.281 229.317 441.781C229.317 441.224 229.207 440.72 228.985 440.27C228.764 439.819 228.458 439.461 228.067 439.195C227.677 438.93 227.229 438.797 226.724 438.797C226.346 438.797 225.998 438.874 225.681 439.027C225.363 439.178 225.088 439.391 224.856 439.664C224.627 439.935 224.449 440.251 224.321 440.613C224.194 440.973 224.13 441.362 224.13 441.781C224.13 442.281 224.217 442.741 224.392 443.16C224.566 443.577 224.798 443.936 225.087 444.238C225.376 444.538 225.692 444.76 226.036 444.906V446H223.192Z" fill="black"/>
<path d="M190 380H305" stroke="black" stroke-width="2" stroke-linecap="square"/>
<path d="M20 380H140" stroke="black" stroke-width="2" stroke-linecap="square"/>
<path d="M140 360V410" stroke="black" stroke-width="2" stroke-linecap="square"/>
<path d="M190 360V410" stroke="black" stroke-width="2" stroke-linecap="square"/>
<path d="M140 410H145" stroke="black" stroke-width="2" stroke-linecap="square"/>
<path d="M185 410H190" stroke="black" stroke-width="2" stroke-linecap="square"/>
<path d="M145 410H147L150 403L156 417L162 403L168 417L174 403L180 417L183 410H185" stroke="black" stroke-width="2" stroke-linecap="square"/>
<path d="M153.141 388V396H152.172V389.016H152.125L150.172 390.312V389.328L152.172 388H153.141ZM158.051 396.109C157.462 396.109 156.961 395.949 156.547 395.629C156.133 395.306 155.816 394.839 155.598 394.227C155.379 393.612 155.27 392.87 155.27 392C155.27 391.135 155.379 390.397 155.598 389.785C155.819 389.171 156.137 388.702 156.551 388.379C156.967 388.053 157.467 387.891 158.051 387.891C158.634 387.891 159.133 388.053 159.547 388.379C159.964 388.702 160.281 389.171 160.5 389.785C160.721 390.397 160.832 391.135 160.832 392C160.832 392.87 160.723 393.612 160.504 394.227C160.285 394.839 159.969 395.306 159.555 395.629C159.141 395.949 158.639 396.109 158.051 396.109ZM158.051 395.25C158.634 395.25 159.087 394.969 159.41 394.406C159.733 393.844 159.895 393.042 159.895 392C159.895 391.307 159.82 390.717 159.672 390.23C159.526 389.743 159.315 389.372 159.039 389.117C158.766 388.862 158.436 388.734 158.051 388.734C157.473 388.734 157.021 389.02 156.695 389.59C156.37 390.158 156.207 390.961 156.207 392C156.207 392.693 156.28 393.281 156.426 393.766C156.572 394.25 156.781 394.618 157.055 394.871C157.331 395.124 157.663 395.25 158.051 395.25ZM164.926 396.109C164.337 396.109 163.836 395.949 163.422 395.629C163.008 395.306 162.691 394.839 162.473 394.227C162.254 393.612 162.145 392.87 162.145 392C162.145 391.135 162.254 390.397 162.473 389.785C162.694 389.171 163.012 388.702 163.426 388.379C163.842 388.053 164.342 387.891 164.926 387.891C165.509 387.891 166.008 388.053 166.422 388.379C166.839 388.702 167.156 389.171 167.375 389.785C167.596 390.397 167.707 391.135 167.707 392C167.707 392.87 167.598 393.612 167.379 394.227C167.16 394.839 166.844 395.306 166.43 395.629C166.016 395.949 165.514 396.109 164.926 396.109ZM164.926 395.25C165.509 395.25 165.962 394.969 166.285 394.406C166.608 393.844 166.77 393.042 166.77 392C166.77 391.307 166.695 390.717 166.547 390.23C166.401 389.743 166.19 389.372 165.914 389.117C165.641 388.862 165.311 388.734 164.926 388.734C164.348 388.734 163.896 389.02 163.57 389.59C163.245 390.158 163.082 390.961 163.082 392C163.082 392.693 163.155 393.281 163.301 393.766C163.447 394.25 163.656 394.618 163.93 394.871C164.206 395.124 164.538 395.25 164.926 395.25ZM172.113 396V395.141H173.785V395.078C173.27 394.742 172.862 394.298 172.563 393.746C172.263 393.194 172.113 392.539 172.113 391.781C172.113 391.211 172.199 390.689 172.371 390.215C172.546 389.738 172.79 389.327 173.105 388.98C173.421 388.634 173.793 388.366 174.223 388.176C174.655 387.986 175.129 387.891 175.645 387.891C176.16 387.891 176.633 387.986 177.062 388.176C177.495 388.366 177.868 388.634 178.184 388.98C178.499 389.327 178.742 389.738 178.914 390.215C179.089 390.689 179.176 391.211 179.176 391.781C179.176 392.539 179.026 393.194 178.727 393.746C178.427 394.298 178.02 394.742 177.504 395.078V395.141H179.176V396H176.332V394.906C176.676 394.76 176.992 394.538 177.281 394.238C177.57 393.936 177.802 393.577 177.977 393.16C178.151 392.741 178.238 392.281 178.238 391.781C178.238 391.224 178.128 390.72 177.906 390.27C177.685 389.819 177.379 389.461 176.988 389.195C176.598 388.93 176.15 388.797 175.645 388.797C175.267 388.797 174.919 388.874 174.602 389.027C174.284 389.178 174.009 389.391 173.777 389.664C173.548 389.935 173.37 390.251 173.242 390.613C173.115 390.973 173.051 391.362 173.051 391.781C173.051 392.281 173.138 392.741 173.313 393.16C173.487 393.577 173.719 393.936 174.008 394.238C174.297 394.538 174.613 394.76 174.957 394.906V396H172.113Z" fill="black"/>
<path d="M140 360H145" stroke="black" stroke-width="2" stroke-linecap="square"/>
<path d="M185 360H190" stroke="black" stroke-width="2" stroke-linecap="square"/>
<path d="M145 360H147L150 353L156 367L162 353L168 367L174 353L180 367L183 360H185" stroke="black" stroke-width="2" stroke-linecap="square"/>
<path d="M153.328 346V345.297L155.969 342.406C156.279 342.068 156.534 341.773 156.734 341.523C156.935 341.271 157.083 341.034 157.18 340.812C157.279 340.589 157.328 340.354 157.328 340.109C157.328 339.828 157.26 339.585 157.125 339.379C156.992 339.173 156.81 339.014 156.578 338.902C156.346 338.79 156.086 338.734 155.797 338.734C155.49 338.734 155.221 338.798 154.992 338.926C154.766 339.051 154.59 339.227 154.465 339.453C154.342 339.68 154.281 339.945 154.281 340.25H153.359C153.359 339.781 153.467 339.37 153.684 339.016C153.9 338.661 154.194 338.385 154.566 338.187C154.941 337.99 155.362 337.891 155.828 337.891C156.297 337.891 156.712 337.99 157.074 338.187C157.436 338.385 157.72 338.652 157.926 338.988C158.132 339.324 158.234 339.698 158.234 340.109C158.234 340.404 158.181 340.691 158.074 340.973C157.97 341.251 157.788 341.562 157.527 341.906C157.27 342.247 156.911 342.664 156.453 343.156L154.656 345.078V345.141H158.375V346H153.328ZM163.957 343.812L163.941 342.672H164.129L166.754 340H167.895L165.098 342.828H165.02L163.957 343.812ZM163.098 346V338H164.02V346H163.098ZM166.91 346L164.566 343.031L165.223 342.391L168.082 346H166.91ZM168.894 346V345.141H170.565V345.078C170.05 344.742 169.642 344.298 169.343 343.746C169.043 343.194 168.894 342.539 168.894 341.781C168.894 341.211 168.979 340.689 169.151 340.215C169.326 339.738 169.571 339.327 169.886 338.98C170.201 338.634 170.573 338.366 171.003 338.176C171.435 337.986 171.909 337.891 172.425 337.891C172.94 337.891 173.413 337.986 173.843 338.176C174.275 338.366 174.649 338.634 174.964 338.98C175.279 339.327 175.522 339.738 175.694 340.215C175.869 340.689 175.956 341.211 175.956 341.781C175.956 342.539 175.806 343.194 175.507 343.746C175.207 344.298 174.8 344.742 174.284 345.078V345.141H175.956V346H173.112V344.906C173.456 344.76 173.772 344.538 174.062 344.238C174.351 343.936 174.582 343.577 174.757 343.16C174.931 342.741 175.019 342.281 175.019 341.781C175.019 341.224 174.908 340.72 174.687 340.27C174.465 339.819 174.159 339.461 173.769 339.195C173.378 338.93 172.93 338.797 172.425 338.797C172.047 338.797 171.7 338.874 171.382 339.027C171.064 339.178 170.789 339.391 170.558 339.664C170.328 339.935 170.15 340.251 170.022 340.613C169.895 340.973 169.831 341.362 169.831 341.781C169.831 342.281 169.918 342.741 170.093 343.16C170.267 343.577 170.499 343.936 170.788 344.238C171.077 344.538 171.394 344.76 171.737 344.906V346H168.894Z" fill="black"/>
<path d="M190 260H305" stroke="black" stroke-width="2" stroke-linecap="square"/>
<path d="M20 260H140" stroke="black" stroke-width="2" stroke-linecap="square"/>
<path d="M190 220V300" stroke="black" stroke-width="2" stroke-linecap="square"/>
<path d="M140 220V300" stroke="black" stroke-width="2" stroke-linecap="square"/>
<path d="M140 300H145" stroke="black" stroke-width="2" stroke-linecap="square"/>
<path d="M185 300H190" stroke="black" stroke-width="2" stroke-linecap="square"/>
<path d="M145 300H147L150 293L156 307L162 293L168 307L174 293L180 307L183 300H185" stroke="black" stroke-width="2" stroke-linecap="square"/>
<path d="M157.141 278V286H156.172V279.016H156.125L154.172 280.312V279.328L156.172 278H157.141ZM163.41 283.812L163.395 282.672H163.582L166.207 280H167.348L164.551 282.828H164.473L163.41 283.812ZM162.551 286V278H163.473V286H162.551ZM166.363 286L164.02 283.031L164.676 282.391L167.535 286H166.363ZM168.347 286V285.141H170.019V285.078C169.503 284.742 169.095 284.298 168.796 283.746C168.496 283.194 168.347 282.539 168.347 281.781C168.347 281.211 168.433 280.689 168.604 280.215C168.779 279.738 169.024 279.327 169.339 278.98C169.654 278.634 170.026 278.366 170.456 278.176C170.888 277.986 171.362 277.891 171.878 277.891C172.394 277.891 172.866 277.986 173.296 278.176C173.728 278.366 174.102 278.634 174.417 278.98C174.732 279.327 174.976 279.738 175.147 280.215C175.322 280.689 175.409 281.211 175.409 281.781C175.409 282.539 175.259 283.194 174.96 283.746C174.66 284.298 174.253 284.742 173.737 285.078V285.141H175.409V286H172.565V284.906C172.909 284.76 173.226 284.538 173.515 284.238C173.804 283.936 174.035 283.577 174.21 283.16C174.384 282.741 174.472 282.281 174.472 281.781C174.472 281.224 174.361 280.72 174.14 280.27C173.918 279.819 173.612 279.461 173.222 279.195C172.831 278.93 172.383 278.797 171.878 278.797C171.5 278.797 171.153 278.874 170.835 279.027C170.517 279.178 170.243 279.391 170.011 279.664C169.782 279.935 169.603 280.251 169.476 280.613C169.348 280.973 169.284 281.362 169.284 281.781C169.284 282.281 169.371 282.741 169.546 283.16C169.72 283.577 169.952 283.936 170.241 284.238C170.53 284.538 170.847 284.76 171.19 284.906V286H168.347Z" fill="black"/>
<path d="M140 260H145" stroke="black" stroke-width="2" stroke-linecap="square"/>
<path d="M185 260H190" stroke="black" stroke-width="2" stroke-linecap="square"/>
<path d="M145 260H147L150 253L156 267L162 253L168 267L174 253L180 267L183 260H185" stroke="black" stroke-width="2" stroke-linecap="square"/>
<path d="M153.328 246V245.297L155.969 242.406C156.279 242.068 156.534 241.773 156.734 241.523C156.935 241.271 157.083 241.034 157.18 240.812C157.279 240.589 157.328 240.354 157.328 240.109C157.328 239.828 157.26 239.585 157.125 239.379C156.992 239.173 156.81 239.014 156.578 238.902C156.346 238.79 156.086 238.734 155.797 238.734C155.49 238.734 155.221 238.798 154.992 238.926C154.766 239.051 154.59 239.227 154.465 239.453C154.342 239.68 154.281 239.945 154.281 240.25H153.359C153.359 239.781 153.467 239.37 153.684 239.016C153.9 238.661 154.194 238.385 154.566 238.187C154.941 237.99 155.362 237.891 155.828 237.891C156.297 237.891 156.712 237.99 157.074 238.187C157.436 238.385 157.72 238.652 157.926 238.988C158.132 239.324 158.234 239.698 158.234 240.109C158.234 240.404 158.181 240.691 158.074 240.973C157.97 241.251 157.788 241.562 157.527 241.906C157.27 242.247 156.911 242.664 156.453 243.156L154.656 245.078V245.141H158.375V246H153.328ZM163.957 243.812L163.941 242.672H164.129L166.754 240H167.895L165.098 242.828H165.02L163.957 243.812ZM163.098 246V238H164.02V246H163.098ZM166.91 246L164.566 243.031L165.223 242.391L168.082 246H166.91ZM168.894 246V245.141H170.565V245.078C170.05 244.742 169.642 244.298 169.343 243.746C169.043 243.194 168.894 242.539 168.894 241.781C168.894 241.211 168.979 240.689 169.151 240.215C169.326 239.738 169.571 239.327 169.886 238.98C170.201 238.634 170.573 238.366 171.003 238.176C171.435 237.986 171.909 237.891 172.425 237.891C172.94 237.891 173.413 237.986 173.843 238.176C174.275 238.366 174.649 238.634 174.964 238.98C175.279 239.327 175.522 239.738 175.694 240.215C175.869 240.689 175.956 241.211 175.956 241.781C175.956 242.539 175.806 243.194 175.507 243.746C175.207 244.298 174.8 244.742 174.284 245.078V245.141H175.956V246H173.112V244.906C173.456 244.76 173.772 244.538 174.062 244.238C174.351 243.936 174.582 243.577 174.757 243.16C174.931 242.741 175.019 242.281 175.019 241.781C175.019 241.224 174.908 240.72 174.687 240.27C174.465 239.819 174.159 239.461 173.769 239.195C173.378 238.93 172.93 238.797 172.425 238.797C172.047 238.797 171.7 238.874 171.382 239.027C171.064 239.178 170.789 239.391 170.558 239.664C170.328 239.935 170.15 240.251 170.022 240.613C169.895 240.973 169.831 241.362 169.831 241.781C169.831 242.281 169.918 242.741 170.093 243.16C170.267 243.577 170.499 243.936 170.788 244.238C171.077 244.538 171.394 244.76 171.737 244.906V246H168.894Z" fill="black"/>
<path d="M140 220H145" stroke="black" stroke-width="2" stroke-linecap="square"/>
<path d="M185 220H190" stroke="black" stroke-width="2" stroke-linecap="square"/>
<path d="M145 220H147L150 213L156 227L162 213L168 227L174 213L180 227L183 220H185" stroke="black" stroke-width="2" stroke-linecap="square"/>
<path d="M152.328 206.109C151.87 206.109 151.457 206.018 151.09 205.836C150.723 205.654 150.428 205.404 150.207 205.086C149.986 204.768 149.865 204.406 149.844 204H150.781C150.818 204.362 150.982 204.661 151.273 204.898C151.568 205.133 151.919 205.25 152.328 205.25C152.656 205.25 152.948 205.173 153.203 205.02C153.461 204.866 153.663 204.655 153.809 204.387C153.957 204.116 154.031 203.81 154.031 203.469C154.031 203.12 153.954 202.809 153.801 202.535C153.65 202.259 153.441 202.042 153.176 201.883C152.91 201.724 152.607 201.643 152.266 201.641C152.021 201.638 151.77 201.676 151.512 201.754C151.254 201.829 151.042 201.927 150.875 202.047L149.969 201.937L150.453 198H154.609V198.859H151.266L150.984 201.219H151.031C151.195 201.089 151.401 200.98 151.648 200.895C151.896 200.809 152.154 200.766 152.422 200.766C152.911 200.766 153.348 200.883 153.73 201.117C154.116 201.349 154.418 201.667 154.637 202.07C154.858 202.474 154.969 202.935 154.969 203.453C154.969 203.964 154.854 204.419 154.625 204.82C154.398 205.219 154.086 205.534 153.688 205.766C153.289 205.995 152.836 206.109 152.328 206.109ZM159.13 206.109C158.541 206.109 158.04 205.949 157.626 205.629C157.212 205.306 156.896 204.839 156.677 204.227C156.458 203.612 156.349 202.87 156.349 202C156.349 201.135 156.458 200.397 156.677 199.785C156.898 199.171 157.216 198.702 157.63 198.379C158.047 198.053 158.547 197.891 159.13 197.891C159.713 197.891 160.212 198.053 160.626 198.379C161.043 198.702 161.36 199.171 161.579 199.785C161.8 200.397 161.911 201.135 161.911 202C161.911 202.87 161.802 203.612 161.583 204.227C161.364 204.839 161.048 205.306 160.634 205.629C160.22 205.949 159.718 206.109 159.13 206.109ZM159.13 205.25C159.713 205.25 160.166 204.969 160.489 204.406C160.812 203.844 160.974 203.042 160.974 202C160.974 201.307 160.899 200.717 160.751 200.23C160.605 199.743 160.394 199.372 160.118 199.117C159.845 198.862 159.515 198.734 159.13 198.734C158.552 198.734 158.1 199.02 157.774 199.59C157.449 200.158 157.286 200.961 157.286 202C157.286 202.693 157.359 203.281 157.505 203.766C157.651 204.25 157.86 204.618 158.134 204.871C158.41 205.124 158.742 205.25 159.13 205.25ZM166.005 206.109C165.416 206.109 164.915 205.949 164.501 205.629C164.087 205.306 163.771 204.839 163.552 204.227C163.333 203.612 163.224 202.87 163.224 202C163.224 201.135 163.333 200.397 163.552 199.785C163.773 199.171 164.091 198.702 164.505 198.379C164.922 198.053 165.422 197.891 166.005 197.891C166.588 197.891 167.087 198.053 167.501 198.379C167.918 198.702 168.235 199.171 168.454 199.785C168.675 200.397 168.786 201.135 168.786 202C168.786 202.87 168.677 203.612 168.458 204.227C168.239 204.839 167.923 205.306 167.509 205.629C167.095 205.949 166.593 206.109 166.005 206.109ZM166.005 205.25C166.588 205.25 167.041 204.969 167.364 204.406C167.687 203.844 167.849 203.042 167.849 202C167.849 201.307 167.774 200.717 167.626 200.23C167.48 199.743 167.269 199.372 166.993 199.117C166.72 198.862 166.39 198.734 166.005 198.734C165.427 198.734 164.975 199.02 164.649 199.59C164.324 200.158 164.161 200.961 164.161 202C164.161 202.693 164.234 203.281 164.38 203.766C164.526 204.25 164.735 204.618 165.009 204.871C165.285 205.124 165.617 205.25 166.005 205.25ZM173.192 206V205.141H174.864V205.078C174.349 204.742 173.941 204.298 173.642 203.746C173.342 203.194 173.192 202.539 173.192 201.781C173.192 201.211 173.278 200.689 173.45 200.215C173.625 199.738 173.869 199.327 174.185 198.98C174.5 198.634 174.872 198.366 175.302 198.176C175.734 197.986 176.208 197.891 176.724 197.891C177.239 197.891 177.712 197.986 178.142 198.176C178.574 198.366 178.948 198.634 179.263 198.98C179.578 199.327 179.821 199.738 179.993 200.215C180.168 200.689 180.255 201.211 180.255 201.781C180.255 202.539 180.105 203.194 179.806 203.746C179.506 204.298 179.099 204.742 178.583 205.078V205.141H180.255V206H177.411V204.906C177.755 204.76 178.071 204.538 178.36 204.238C178.649 203.936 178.881 203.577 179.056 203.16C179.23 202.741 179.317 202.281 179.317 201.781C179.317 201.224 179.207 200.72 178.985 200.27C178.764 199.819 178.458 199.461 178.067 199.195C177.677 198.93 177.229 198.797 176.724 198.797C176.346 198.797 175.998 198.874 175.681 199.027C175.363 199.178 175.088 199.391 174.856 199.664C174.627 199.935 174.449 200.251 174.321 200.613C174.194 200.973 174.13 201.362 174.13 201.781C174.13 202.281 174.217 202.741 174.392 203.16C174.566 203.577 174.798 203.936 175.087 204.238C175.376 204.538 175.692 204.76 176.036 204.906V206H173.192Z" fill="black"/>
<path d="M240 160H305" stroke="black" stroke-width="2" stroke-linecap="square"/>
<path d="M20 160H90" stroke="black" stroke-width="2" stroke-linecap="square"/>
<path d="M90 160H95" stroke="black" stroke-width="2" stroke-linecap="square"/>
<path d="M135 160H140" stroke="black" stroke-width="2" stroke-linecap="square"/>
<path d="M95 160H97L100 153L106 167L112 153L118 167L124 153L130 167L133 160H135" stroke="black" stroke-width="2" stroke-linecap="square"/>
<path d="M103.141 138V146H102.172V139.016H102.125L100.172 140.312V139.328L102.172 138H103.141ZM108.051 146.109C107.462 146.109 106.961 145.949 106.547 145.629C106.133 145.306 105.816 144.839 105.598 144.227C105.379 143.612 105.27 142.87 105.27 142C105.27 141.135 105.379 140.397 105.598 139.785C105.819 139.171 106.137 138.702 106.551 138.379C106.967 138.053 107.467 137.891 108.051 137.891C108.634 137.891 109.133 138.053 109.547 138.379C109.964 138.702 110.281 139.171 110.5 139.785C110.721 140.397 110.832 141.135 110.832 142C110.832 142.87 110.723 143.612 110.504 144.227C110.285 144.839 109.969 145.306 109.555 145.629C109.141 145.949 108.639 146.109 108.051 146.109ZM108.051 145.25C108.634 145.25 109.087 144.969 109.41 144.406C109.733 143.844 109.895 143.042 109.895 142C109.895 141.307 109.82 140.717 109.672 140.23C109.526 139.743 109.315 139.372 109.039 139.117C108.766 138.862 108.436 138.734 108.051 138.734C107.473 138.734 107.021 139.02 106.695 139.59C106.37 140.158 106.207 140.961 106.207 142C106.207 142.693 106.28 143.281 106.426 143.766C106.572 144.25 106.781 144.618 107.055 144.871C107.331 145.124 107.663 145.25 108.051 145.25ZM114.926 146.109C114.337 146.109 113.836 145.949 113.422 145.629C113.008 145.306 112.691 144.839 112.473 144.227C112.254 143.612 112.145 142.87 112.145 142C112.145 141.135 112.254 140.397 112.473 139.785C112.694 139.171 113.012 138.702 113.426 138.379C113.842 138.053 114.342 137.891 114.926 137.891C115.509 137.891 116.008 138.053 116.422 138.379C116.839 138.702 117.156 139.171 117.375 139.785C117.596 140.397 117.707 141.135 117.707 142C117.707 142.87 117.598 143.612 117.379 144.227C117.16 144.839 116.844 145.306 116.43 145.629C116.016 145.949 115.514 146.109 114.926 146.109ZM114.926 145.25C115.509 145.25 115.962 144.969 116.285 144.406C116.608 143.844 116.77 143.042 116.77 142C116.77 141.307 116.695 140.717 116.547 140.23C116.401 139.743 116.19 139.372 115.914 139.117C115.641 138.862 115.311 138.734 114.926 138.734C114.348 138.734 113.896 139.02 113.57 139.59C113.245 140.158 113.082 140.961 113.082 142C113.082 142.693 113.155 143.281 113.301 143.766C113.447 144.25 113.656 144.618 113.93 144.871C114.206 145.124 114.538 145.25 114.926 145.25ZM122.113 146V145.141H123.785V145.078C123.27 144.742 122.862 144.298 122.563 143.746C122.263 143.194 122.113 142.539 122.113 141.781C122.113 141.211 122.199 140.689 122.371 140.215C122.546 139.738 122.79 139.327 123.105 138.98C123.421 138.634 123.793 138.366 124.223 138.176C124.655 137.986 125.129 137.891 125.645 137.891C126.16 137.891 126.633 137.986 127.062 138.176C127.495 138.366 127.868 138.634 128.184 138.98C128.499 139.327 128.742 139.738 128.914 140.215C129.089 140.689 129.176 141.211 129.176 141.781C129.176 142.539 129.026 143.194 128.727 143.746C128.427 144.298 128.02 144.742 127.504 145.078V145.141H129.176V146H126.332V144.906C126.676 144.76 126.992 144.538 127.281 144.238C127.57 143.936 127.802 143.577 127.977 143.16C128.151 142.741 128.238 142.281 128.238 141.781C128.238 141.224 128.128 140.72 127.906 140.27C127.685 139.819 127.379 139.461 126.988 139.195C126.598 138.93 126.15 138.797 125.645 138.797C125.267 138.797 124.919 138.874 124.602 139.027C124.284 139.178 124.009 139.391 123.777 139.664C123.548 139.935 123.37 140.251 123.242 140.613C123.115 140.973 123.051 141.362 123.051 141.781C123.051 142.281 123.138 142.741 123.313 143.16C123.487 143.577 123.719 143.936 124.008 144.238C124.297 144.538 124.613 144.76 124.957 144.906V146H122.113Z" fill="black"/>
<path d="M190 160H195" stroke="black" stroke-width="2" stroke-linecap="square"/>
<path d="M235 160H240" stroke="black" stroke-width="2" stroke-linecap="square"/>
<path d="M195 160H197L200 153L206 167L212 153L218 167L224 153L230 167L233 160H235" stroke="black" stroke-width="2" stroke-linecap="square"/>
<path d="M203.328 146V145.297L205.969 142.406C206.279 142.068 206.534 141.773 206.734 141.523C206.935 141.271 207.083 141.034 207.18 140.812C207.279 140.589 207.328 140.354 207.328 140.109C207.328 139.828 207.26 139.585 207.125 139.379C206.992 139.173 206.81 139.014 206.578 138.902C206.346 138.79 206.086 138.734 205.797 138.734C205.49 138.734 205.221 138.798 204.992 138.926C204.766 139.051 204.59 139.227 204.465 139.453C204.342 139.68 204.281 139.945 204.281 140.25H203.359C203.359 139.781 203.467 139.37 203.684 139.016C203.9 138.661 204.194 138.385 204.566 138.187C204.941 137.99 205.362 137.891 205.828 137.891C206.297 137.891 206.712 137.99 207.074 138.187C207.436 138.385 207.72 138.652 207.926 138.988C208.132 139.324 208.234 139.698 208.234 140.109C208.234 140.404 208.181 140.691 208.074 140.973C207.97 141.251 207.788 141.562 207.527 141.906C207.27 142.247 206.911 142.664 206.453 143.156L204.656 145.078V145.141H208.375V146H203.328ZM213.957 143.812L213.941 142.672H214.129L216.754 140H217.895L215.098 142.828H215.02L213.957 143.812ZM213.098 146V138H214.02V146H213.098ZM216.91 146L214.566 143.031L215.223 142.391L218.082 146H216.91ZM218.894 146V145.141H220.565V145.078C220.05 144.742 219.642 144.298 219.343 143.746C219.043 143.194 218.894 142.539 218.894 141.781C218.894 141.211 218.979 140.689 219.151 140.215C219.326 139.738 219.571 139.327 219.886 138.98C220.201 138.634 220.573 138.366 221.003 138.176C221.435 137.986 221.909 137.891 222.425 137.891C222.94 137.891 223.413 137.986 223.843 138.176C224.275 138.366 224.649 138.634 224.964 138.98C225.279 139.327 225.522 139.738 225.694 140.215C225.869 140.689 225.956 141.211 225.956 141.781C225.956 142.539 225.806 143.194 225.507 143.746C225.207 144.298 224.8 144.742 224.284 145.078V145.141H225.956V146H223.112V144.906C223.456 144.76 223.772 144.538 224.062 144.238C224.351 143.936 224.582 143.577 224.757 143.16C224.931 142.741 225.019 142.281 225.019 141.781C225.019 141.224 224.908 140.72 224.687 140.27C224.465 139.819 224.159 139.461 223.769 139.195C223.378 138.93 222.93 138.797 222.425 138.797C222.047 138.797 221.7 138.874 221.382 139.027C221.064 139.178 220.789 139.391 220.558 139.664C220.328 139.935 220.15 140.251 220.022 140.613C219.895 140.973 219.831 141.362 219.831 141.781C219.831 142.281 219.918 142.741 220.093 143.16C220.267 143.577 220.499 143.936 220.788 144.238C221.077 144.538 221.394 144.76 221.737 144.906V146H218.894Z" fill="black"/>
<path d="M140 160H145" stroke="black" stroke-width="2" stroke-linecap="square"/>
<path d="M185 160H190" stroke="black" stroke-width="2" stroke-linecap="square"/>
<path d="M145 160H147L150 153L156 167L162 153L168 167L174 153L180 167L183 160H185" stroke="black" stroke-width="2" stroke-linecap="square"/>
<path d="M152.328 146.109C151.87 146.109 151.457 146.018 151.09 145.836C150.723 145.654 150.428 145.404 150.207 145.086C149.986 144.768 149.865 144.406 149.844 144H150.781C150.818 144.362 150.982 144.661 151.273 144.898C151.568 145.133 151.919 145.25 152.328 145.25C152.656 145.25 152.948 145.173 153.203 145.02C153.461 144.866 153.663 144.655 153.809 144.387C153.957 144.116 154.031 143.81 154.031 143.469C154.031 143.12 153.954 142.809 153.801 142.535C153.65 142.259 153.441 142.042 153.176 141.883C152.91 141.724 152.607 141.643 152.266 141.641C152.021 141.638 151.77 141.676 151.512 141.754C151.254 141.829 151.042 141.927 150.875 142.047L149.969 141.937L150.453 138H154.609V138.859H151.266L150.984 141.219H151.031C151.195 141.089 151.401 140.98 151.648 140.895C151.896 140.809 152.154 140.766 152.422 140.766C152.911 140.766 153.348 140.883 153.73 141.117C154.116 141.349 154.418 141.667 154.637 142.07C154.858 142.474 154.969 142.935 154.969 143.453C154.969 143.964 154.854 144.419 154.625 144.82C154.398 145.219 154.086 145.534 153.688 145.766C153.289 145.995 152.836 146.109 152.328 146.109ZM159.13 146.109C158.541 146.109 158.04 145.949 157.626 145.629C157.212 145.306 156.896 144.839 156.677 144.227C156.458 143.612 156.349 142.87 156.349 142C156.349 141.135 156.458 140.397 156.677 139.785C156.898 139.171 157.216 138.702 157.63 138.379C158.047 138.053 158.547 137.891 159.13 137.891C159.713 137.891 160.212 138.053 160.626 138.379C161.043 138.702 161.36 139.171 161.579 139.785C161.8 140.397 161.911 141.135 161.911 142C161.911 142.87 161.802 143.612 161.583 144.227C161.364 144.839 161.048 145.306 160.634 145.629C160.22 145.949 159.718 146.109 159.13 146.109ZM159.13 145.25C159.713 145.25 160.166 144.969 160.489 144.406C160.812 143.844 160.974 143.042 160.974 142C160.974 141.307 160.899 140.717 160.751 140.23C160.605 139.743 160.394 139.372 160.118 139.117C159.845 138.862 159.515 138.734 159.13 138.734C158.552 138.734 158.1 139.02 157.774 139.59C157.449 140.158 157.286 140.961 157.286 142C157.286 142.693 157.359 143.281 157.505 143.766C157.651 144.25 157.86 144.618 158.134 144.871C158.41 145.124 158.742 145.25 159.13 145.25ZM166.005 146.109C165.416 146.109 164.915 145.949 164.501 145.629C164.087 145.306 163.771 144.839 163.552 144.227C163.333 143.612 163.224 142.87 163.224 142C163.224 141.135 163.333 140.397 163.552 139.785C163.773 139.171 164.091 138.702 164.505 138.379C164.922 138.053 165.422 137.891 166.005 137.891C166.588 137.891 167.087 138.053 167.501 138.379C167.918 138.702 168.235 139.171 168.454 139.785C168.675 140.397 168.786 141.135 168.786 142C168.786 142.87 168.677 143.612 168.458 144.227C168.239 144.839 167.923 145.306 167.509 145.629C167.095 145.949 166.593 146.109 166.005 146.109ZM166.005 145.25C166.588 145.25 167.041 144.969 167.364 144.406C167.687 143.844 167.849 143.042 167.849 142C167.849 141.307 167.774 140.717 167.626 140.23C167.48 139.743 167.269 139.372 166.993 139.117C166.72 138.862 166.39 138.734 166.005 138.734C165.427 138.734 164.975 139.02 164.649 139.59C164.324 140.158 164.161 140.961 164.161 142C164.161 142.693 164.234 143.281 164.38 143.766C164.526 144.25 164.735 144.618 165.009 144.871C165.285 145.124 165.617 145.25 166.005 145.25ZM173.192 146V145.141H174.864V145.078C174.349 144.742 173.941 144.298 173.642 143.746C173.342 143.194 173.192 142.539 173.192 141.781C173.192 141.211 173.278 140.689 173.45 140.215C173.625 139.738 173.869 139.327 174.185 138.98C174.5 138.634 174.872 138.366 175.302 138.176C175.734 137.986 176.208 137.891 176.724 137.891C177.239 137.891 177.712 137.986 178.142 138.176C178.574 138.366 178.948 138.634 179.263 138.98C179.578 139.327 179.821 139.738 179.993 140.215C180.168 140.689 180.255 141.211 180.255 141.781C180.255 142.539 180.105 143.194 179.806 143.746C179.506 144.298 179.099 144.742 178.583 145.078V145.141H180.255V146H177.411V144.906C177.755 144.76 178.071 144.538 178.36 144.238C178.649 143.936 178.881 143.577 179.056 143.16C179.23 142.741 179.317 142.281 179.317 141.781C179.317 141.224 179.207 140.72 178.985 140.27C178.764 139.819 178.458 139.461 178.067 139.195C177.677 138.93 177.229 138.797 176.724 138.797C176.346 138.797 175.998 138.874 175.681 139.027C175.363 139.178 175.088 139.391 174.856 139.664C174.627 139.935 174.449 140.251 174.321 140.613C174.194 140.973 174.13 141.362 174.13 141.781C174.13 142.281 174.217 142.741 174.392 143.16C174.566 143.577 174.798 143.936 175.087 144.238C175.376 144.538 175.692 144.76 176.036 144.906V146H173.192Z" fill="black"/>
<path d="M240 110H320" stroke="black" stroke-width="2" stroke-linecap="square"/>
<path d="M20 110H140" stroke="black" stroke-width="2" stroke-linecap="square"/>
<path d="M190 110H195" stroke="black" stroke-width="2" stroke-linecap="square"/>
<path d="M235 110H240" stroke="black" stroke-width="2" stroke-linecap="square"/>
<path d="M195 110H197L200 103L206 117L212 103L218 117L224 103L230 117L233 110H235" stroke="black" stroke-width="2" stroke-linecap="square"/>
<path d="M203.328 96V95.2969L205.969 92.4062C206.279 92.0677 206.534 91.7734 206.734 91.5234C206.935 91.2708 207.083 91.0339 207.18 90.8125C207.279 90.5885 207.328 90.3542 207.328 90.1094C207.328 89.8281 207.26 89.5846 207.125 89.3789C206.992 89.1732 206.81 89.0143 206.578 88.9023C206.346 88.7904 206.086 88.7344 205.797 88.7344C205.49 88.7344 205.221 88.7982 204.992 88.9258C204.766 89.0508 204.59 89.2266 204.465 89.4531C204.342 89.6797 204.281 89.9453 204.281 90.25H203.359C203.359 89.7812 203.467 89.3698 203.684 89.0156C203.9 88.6615 204.194 88.3854 204.566 88.1875C204.941 87.9896 205.362 87.8906 205.828 87.8906C206.297 87.8906 206.712 87.9896 207.074 88.1875C207.436 88.3854 207.72 88.6523 207.926 88.9883C208.132 89.3242 208.234 89.6979 208.234 90.1094C208.234 90.4036 208.181 90.6914 208.074 90.9727C207.97 91.2513 207.788 91.5625 207.527 91.9062C207.27 92.2474 206.911 92.6641 206.453 93.1562L204.656 95.0781V95.1406H208.375V96H203.328ZM213.957 93.8125L213.941 92.6719H214.129L216.754 90H217.895L215.098 92.8281H215.02L213.957 93.8125ZM213.098 96V88H214.02V96H213.098ZM216.91 96L214.566 93.0312L215.223 92.3906L218.082 96H216.91ZM218.894 96V95.1406H220.565V95.0781C220.05 94.7422 219.642 94.2982 219.343 93.7461C219.043 93.194 218.894 92.5391 218.894 91.7812C218.894 91.2109 218.979 90.6888 219.151 90.2148C219.326 89.7383 219.571 89.3268 219.886 88.9805C220.201 88.6341 220.573 88.3659 221.003 88.1758C221.435 87.9857 221.909 87.8906 222.425 87.8906C222.94 87.8906 223.413 87.9857 223.843 88.1758C224.275 88.3659 224.649 88.6341 224.964 88.9805C225.279 89.3268 225.522 89.7383 225.694 90.2148C225.869 90.6888 225.956 91.2109 225.956 91.7812C225.956 92.5391 225.806 93.194 225.507 93.7461C225.207 94.2982 224.8 94.7422 224.284 95.0781V95.1406H225.956V96H223.112V94.9062C223.456 94.7604 223.772 94.5378 224.062 94.2383C224.351 93.9362 224.582 93.5768 224.757 93.1602C224.931 92.7409 225.019 92.2812 225.019 91.7812C225.019 91.224 224.908 90.7201 224.687 90.2695C224.465 89.819 224.159 89.4609 223.769 89.1953C223.378 88.9297 222.93 88.7969 222.425 88.7969C222.047 88.7969 221.7 88.8737 221.382 89.0273C221.064 89.1784 220.789 89.3906 220.558 89.6641C220.328 89.9349 220.15 90.2513 220.022 90.6133C219.895 90.9727 219.831 91.362 219.831 91.7812C219.831 92.2812 219.918 92.7409 220.093 93.1602C220.267 93.5768 220.499 93.9362 220.788 94.2383C221.077 94.5378 221.394 94.7604 221.737 94.9062V96H218.894Z" fill="black"/>
<path d="M140 110H145" stroke="black" stroke-width="2" stroke-linecap="square"/>
<path d="M185 110H190" stroke="black" stroke-width="2" stroke-linecap="square"/>
<path d="M145 110H147L150 103L156 117L162 103L168 117L174 103L180 117L183 110H185" stroke="black" stroke-width="2" stroke-linecap="square"/>
<path d="M152.328 96.1094C151.87 96.1094 151.457 96.0182 151.09 95.8359C150.723 95.6536 150.428 95.4036 150.207 95.0859C149.986 94.7682 149.865 94.4062 149.844 94H150.781C150.818 94.362 150.982 94.6615 151.273 94.8984C151.568 95.1328 151.919 95.25 152.328 95.25C152.656 95.25 152.948 95.1732 153.203 95.0195C153.461 94.8659 153.663 94.6549 153.809 94.3867C153.957 94.1159 154.031 93.8099 154.031 93.4687C154.031 93.1198 153.954 92.8086 153.801 92.5352C153.65 92.2591 153.441 92.0417 153.176 91.8828C152.91 91.724 152.607 91.6432 152.266 91.6406C152.021 91.638 151.77 91.6758 151.512 91.7539C151.254 91.8294 151.042 91.9271 150.875 92.0469L149.969 91.9375L150.453 88H154.609V88.8594H151.266L150.984 91.2187H151.031C151.195 91.0885 151.401 90.9805 151.648 90.8945C151.896 90.8086 152.154 90.7656 152.422 90.7656C152.911 90.7656 153.348 90.8828 153.73 91.1172C154.116 91.349 154.418 91.6667 154.637 92.0703C154.858 92.474 154.969 92.9349 154.969 93.4531C154.969 93.9635 154.854 94.4193 154.625 94.8203C154.398 95.2187 154.086 95.5339 153.688 95.7656C153.289 95.9948 152.836 96.1094 152.328 96.1094ZM159.13 96.1094C158.541 96.1094 158.04 95.9492 157.626 95.6289C157.212 95.306 156.896 94.8385 156.677 94.2266C156.458 93.612 156.349 92.8698 156.349 92C156.349 91.1354 156.458 90.3971 156.677 89.7852C156.898 89.1706 157.216 88.7018 157.63 88.3789C158.047 88.0534 158.547 87.8906 159.13 87.8906C159.713 87.8906 160.212 88.0534 160.626 88.3789C161.043 88.7018 161.36 89.1706 161.579 89.7852C161.8 90.3971 161.911 91.1354 161.911 92C161.911 92.8698 161.802 93.612 161.583 94.2266C161.364 94.8385 161.048 95.306 160.634 95.6289C160.22 95.9492 159.718 96.1094 159.13 96.1094ZM159.13 95.25C159.713 95.25 160.166 94.9687 160.489 94.4062C160.812 93.8437 160.974 93.0417 160.974 92C160.974 91.3073 160.899 90.7174 160.751 90.2305C160.605 89.7435 160.394 89.3724 160.118 89.1172C159.845 88.862 159.515 88.7344 159.13 88.7344C158.552 88.7344 158.1 89.0195 157.774 89.5898C157.449 90.1576 157.286 90.9609 157.286 92C157.286 92.6927 157.359 93.2812 157.505 93.7656C157.651 94.25 157.86 94.6185 158.134 94.8711C158.41 95.1237 158.742 95.25 159.13 95.25ZM166.005 96.1094C165.416 96.1094 164.915 95.9492 164.501 95.6289C164.087 95.306 163.771 94.8385 163.552 94.2266C163.333 93.612 163.224 92.8698 163.224 92C163.224 91.1354 163.333 90.3971 163.552 89.7852C163.773 89.1706 164.091 88.7018 164.505 88.3789C164.922 88.0534 165.422 87.8906 166.005 87.8906C166.588 87.8906 167.087 88.0534 167.501 88.3789C167.918 88.7018 168.235 89.1706 168.454 89.7852C168.675 90.3971 168.786 91.1354 168.786 92C168.786 92.8698 168.677 93.612 168.458 94.2266C168.239 94.8385 167.923 95.306 167.509 95.6289C167.095 95.9492 166.593 96.1094 166.005 96.1094ZM166.005 95.25C166.588 95.25 167.041 94.9687 167.364 94.4062C167.687 93.8437 167.849 93.0417 167.849 92C167.849 91.3073 167.774 90.7174 167.626 90.2305C167.48 89.7435 167.269 89.3724 166.993 89.1172C166.72 88.862 166.39 88.7344 166.005 88.7344C165.427 88.7344 164.975 89.0195 164.649 89.5898C164.324 90.1576 164.161 90.9609 164.161 92C164.161 92.6927 164.234 93.2812 164.38 93.7656C164.526 94.25 164.735 94.6185 165.009 94.8711C165.285 95.1237 165.617 95.25 166.005 95.25ZM173.192 96V95.1406H174.864V95.0781C174.349 94.7422 173.941 94.2982 173.642 93.7461C173.342 93.194 173.192 92.5391 173.192 91.7812C173.192 91.2109 173.278 90.6888 173.45 90.2148C173.625 89.7383 173.869 89.3268 174.185 88.9805C174.5 88.6341 174.872 88.3659 175.302 88.1758C175.734 87.9857 176.208 87.8906 176.724 87.8906C177.239 87.8906 177.712 87.9857 178.142 88.1758C178.574 88.3659 178.948 88.6341 179.263 88.9805C179.578 89.3268 179.821 89.7383 179.993 90.2148C180.168 90.6888 180.255 91.2109 180.255 91.7812C180.255 92.5391 180.105 93.194 179.806 93.7461C179.506 94.2982 179.099 94.7422 178.583 95.0781V95.1406H180.255V96H177.411V94.9062C177.755 94.7604 178.071 94.5378 178.36 94.2383C178.649 93.9362 178.881 93.5768 179.056 93.1602C179.23 92.7409 179.317 92.2812 179.317 91.7812C179.317 91.224 179.207 90.7201 178.985 90.2695C178.764 89.819 178.458 89.4609 178.067 89.1953C177.677 88.9297 177.229 88.7969 176.724 88.7969C176.346 88.7969 175.998 88.8737 175.681 89.0273C175.363 89.1784 175.088 89.3906 174.856 89.6641C174.627 89.9349 174.449 90.2513 174.321 90.6133C174.194 90.9727 174.13 91.362 174.13 91.7812C174.13 92.2812 174.217 92.7409 174.392 93.1602C174.566 93.5768 174.798 93.9362 175.087 94.2383C175.376 94.5378 175.692 94.7604 176.036 94.9062V96H173.192Z" fill="black"/>
<path d="M20 60H140" stroke="black" stroke-width="2" stroke-linecap="square"/>
<path d="M190 60H320" stroke="black" stroke-width="2" stroke-linecap="square"/>
<path d="M140 60H145" stroke="black" stroke-width="2" stroke-linecap="square"/>
<path d="M185 60H190" stroke="black" stroke-width="2" stroke-linecap="square"/>
<path d="M145 60H147L150 53L156 67L162 53L168 67L174 53L180 67L183 60H185" stroke="black" stroke-width="2" stroke-linecap="square"/>
<path d="M153.141 38V46H152.172V39.0156H152.125L150.172 40.3125V39.3281L152.172 38H153.141ZM158.051 46.1094C157.462 46.1094 156.961 45.9492 156.547 45.6289C156.133 45.306 155.816 44.8385 155.598 44.2266C155.379 43.612 155.27 42.8698 155.27 42C155.27 41.1354 155.379 40.3971 155.598 39.7852C155.819 39.1706 156.137 38.7018 156.551 38.3789C156.967 38.0534 157.467 37.8906 158.051 37.8906C158.634 37.8906 159.133 38.0534 159.547 38.3789C159.964 38.7018 160.281 39.1706 160.5 39.7852C160.721 40.3971 160.832 41.1354 160.832 42C160.832 42.8698 160.723 43.612 160.504 44.2266C160.285 44.8385 159.969 45.306 159.555 45.6289C159.141 45.9492 158.639 46.1094 158.051 46.1094ZM158.051 45.25C158.634 45.25 159.087 44.9687 159.41 44.4062C159.733 43.8437 159.895 43.0417 159.895 42C159.895 41.3073 159.82 40.7174 159.672 40.2305C159.526 39.7435 159.315 39.3724 159.039 39.1172C158.766 38.862 158.436 38.7344 158.051 38.7344C157.473 38.7344 157.021 39.0195 156.695 39.5898C156.37 40.1576 156.207 40.9609 156.207 42C156.207 42.6927 156.28 43.2812 156.426 43.7656C156.572 44.25 156.781 44.6185 157.055 44.8711C157.331 45.1237 157.663 45.25 158.051 45.25ZM164.926 46.1094C164.337 46.1094 163.836 45.9492 163.422 45.6289C163.008 45.306 162.691 44.8385 162.473 44.2266C162.254 43.612 162.145 42.8698 162.145 42C162.145 41.1354 162.254 40.3971 162.473 39.7852C162.694 39.1706 163.012 38.7018 163.426 38.3789C163.842 38.0534 164.342 37.8906 164.926 37.8906C165.509 37.8906 166.008 38.0534 166.422 38.3789C166.839 38.7018 167.156 39.1706 167.375 39.7852C167.596 40.3971 167.707 41.1354 167.707 42C167.707 42.8698 167.598 43.612 167.379 44.2266C167.16 44.8385 166.844 45.306 166.43 45.6289C166.016 45.9492 165.514 46.1094 164.926 46.1094ZM164.926 45.25C165.509 45.25 165.962 44.9687 166.285 44.4062C166.608 43.8437 166.77 43.0417 166.77 42C166.77 41.3073 166.695 40.7174 166.547 40.2305C166.401 39.7435 166.19 39.3724 165.914 39.1172C165.641 38.862 165.311 38.7344 164.926 38.7344C164.348 38.7344 163.896 39.0195 163.57 39.5898C163.245 40.1576 163.082 40.9609 163.082 42C163.082 42.6927 163.155 43.2812 163.301 43.7656C163.447 44.25 163.656 44.6185 163.93 44.8711C164.206 45.1237 164.538 45.25 164.926 45.25ZM172.113 46V45.1406H173.785V45.0781C173.27 44.7422 172.862 44.2982 172.563 43.7461C172.263 43.194 172.113 42.5391 172.113 41.7812C172.113 41.2109 172.199 40.6888 172.371 40.2148C172.546 39.7383 172.79 39.3268 173.105 38.9805C173.421 38.6341 173.793 38.3659 174.223 38.1758C174.655 37.9857 175.129 37.8906 175.645 37.8906C176.16 37.8906 176.633 37.9857 177.062 38.1758C177.495 38.3659 177.868 38.6341 178.184 38.9805C178.499 39.3268 178.742 39.7383 178.914 40.2148C179.089 40.6888 179.176 41.2109 179.176 41.7812C179.176 42.5391 179.026 43.194 178.727 43.7461C178.427 44.2982 178.02 44.7422 177.504 45.0781V45.1406H179.176V46H176.332V44.9062C176.676 44.7604 176.992 44.5378 177.281 44.2383C177.57 43.9362 177.802 43.5768 177.977 43.1602C178.151 42.7409 178.238 42.2812 178.238 41.7812C178.238 41.224 178.128 40.7201 177.906 40.2695C177.685 39.819 177.379 39.4609 176.988 39.1953C176.598 38.9297 176.15 38.7969 175.645 38.7969C175.267 38.7969 174.919 38.8737 174.602 39.0273C174.284 39.1784 174.009 39.3906 173.777 39.6641C173.548 39.9349 173.37 40.2513 173.242 40.6133C173.115 40.9727 173.051 41.362 173.051 41.7812C173.051 42.2812 173.138 42.7409 173.313 43.1602C173.487 43.5768 173.719 43.9362 174.008 44.2383C174.297 44.5378 174.613 44.7604 174.957 44.9062V46H172.113Z" fill="black"/>
<path d="M290 562C291.105 562 292 561.105 292 560C292 558.895 291.105 558 290 558C288.895 558 288 558.895 288 560C288 561.105 288.895 562 290 562Z" fill="black" stroke="black" stroke-width="2"/>
<path d="M190 562C191.105 562 192 561.105 192 560C192 558.895 191.105 558 190 558C188.895 558 188 558.895 188 560C188 561.105 188.895 562 190 562Z" fill="black" stroke="black" stroke-width="2"/>
<path d="M190 612C191.105 612 192 611.105 192 610C192 608.895 191.105 608 190 608C188.895 608 188 608.895 188 610C188 611.105 188.895 612 190 612Z" fill="black" stroke="black" stroke-width="2"/>
<path d="M290 612C291.105 612 292 611.105 292 610C292 608.895 291.105 608 290 608C288.895 608 288 608.895 288 610C288 611.105 288.895 612 290 612Z" fill="black" stroke="black" stroke-width="2"/>
<path d="M190 482C191.105 482 192 481.105 192 480C192 478.895 191.105 478 190 478C188.895 478 188 478.895 188 480C188 481.105 188.895 482 190 482Z" fill="black" stroke="black" stroke-width="2"/>
<path d="M240 482C241.105 482 242 481.105 242 480C242 478.895 241.105 478 240 478C238.895 478 238 478.895 238 480C238 481.105 238.895 482 240 482Z" fill="black" stroke="black" stroke-width="2"/>
<path d="M190 382C191.105 382 192 381.105 192 380C192 378.895 191.105 378 190 378C188.895 378 188 378.895 188 380C188 381.105 188.895 382 190 382Z" fill="black" stroke="black" stroke-width="2"/>
<path d="M140 382C141.105 382 142 381.105 142 380C142 378.895 141.105 378 140 378C138.895 378 138 378.895 138 380C138 381.105 138.895 382 140 382Z" fill="black" stroke="black" stroke-width="2"/>
<path d="M190 262C191.105 262 192 261.105 192 260C192 258.895 191.105 258 190 258C188.895 258 188 258.895 188 260C188 261.105 188.895 262 190 262Z" fill="black" stroke="black" stroke-width="2"/>
<path d="M140 262C141.105 262 142 261.105 142 260C142 258.895 141.105 258 140 258C138.895 258 138 258.895 138 260C138 261.105 138.895 262 140 262Z" fill="black" stroke="black" stroke-width="2"/>
<path d="M12.3651 42.5455V60H10.2514V44.7614H10.1491L5.88778 47.5909V45.4432L10.2514 42.5455H12.3651Z" fill="black"/>
<path d="M334.003 60.2386C332.833 60.2386 331.799 60.0312 330.901 59.6165C330.009 59.196 329.313 58.6193 328.813 57.8864C328.313 57.1477 328.066 56.3068 328.071 55.3636C328.066 54.625 328.211 53.9432 328.506 53.3182C328.801 52.6875 329.205 52.1619 329.716 51.7415C330.233 51.3153 330.81 51.0455 331.446 50.9318V50.8295C330.611 50.6136 329.946 50.1449 329.452 49.4233C328.958 48.696 328.713 47.8693 328.719 46.9432C328.713 46.0568 328.938 45.2642 329.392 44.5653C329.847 43.8665 330.472 43.3153 331.267 42.9119C332.069 42.5085 332.98 42.3068 334.003 42.3068C335.015 42.3068 335.918 42.5085 336.713 42.9119C337.509 43.3153 338.134 43.8665 338.588 44.5653C339.049 45.2642 339.282 46.0568 339.287 46.9432C339.282 47.8693 339.029 48.696 338.529 49.4233C338.034 50.1449 337.378 50.6136 336.56 50.8295V50.9318C337.191 51.0455 337.759 51.3153 338.265 51.7415C338.77 52.1619 339.174 52.6875 339.475 53.3182C339.776 53.9432 339.929 54.625 339.935 55.3636C339.929 56.3068 339.674 57.1477 339.168 57.8864C338.668 58.6193 337.972 59.196 337.08 59.6165C336.194 60.0312 335.168 60.2386 334.003 60.2386ZM334.003 58.3636C334.793 58.3636 335.475 58.2358 336.049 57.9801C336.623 57.7244 337.066 57.3636 337.378 56.8977C337.691 56.4318 337.85 55.8864 337.855 55.2614C337.85 54.6023 337.679 54.0199 337.344 53.5142C337.009 53.0085 336.551 52.6108 335.972 52.321C335.398 52.0312 334.742 51.8864 334.003 51.8864C333.259 51.8864 332.594 52.0312 332.009 52.321C331.429 52.6108 330.972 53.0085 330.637 53.5142C330.307 54.0199 330.145 54.6023 330.151 55.2614C330.145 55.8864 330.296 56.4318 330.603 56.8977C330.915 57.3636 331.361 57.7244 331.941 57.9801C332.52 58.2358 333.208 58.3636 334.003 58.3636ZM334.003 50.0795C334.628 50.0795 335.182 49.9545 335.665 49.7045C336.154 49.4545 336.537 49.1051 336.816 48.6562C337.094 48.2074 337.236 47.6818 337.242 47.0795C337.236 46.4886 337.097 45.9744 336.824 45.5369C336.551 45.0937 336.174 44.7528 335.691 44.5142C335.208 44.2699 334.645 44.1477 334.003 44.1477C333.35 44.1477 332.779 44.2699 332.29 44.5142C331.801 44.7528 331.424 45.0937 331.157 45.5369C330.89 45.9744 330.759 46.4886 330.765 47.0795C330.759 47.6818 330.892 48.2074 331.165 48.6562C331.444 49.1051 331.827 49.4545 332.316 49.7045C332.804 49.9545 333.367 50.0795 334.003 50.0795Z" fill="black"/>
<path d="M333.875 97.3068C334.591 97.3125 335.307 97.4489 336.023 97.7159C336.739 97.983 337.392 98.4261 337.983 99.0455C338.574 99.6591 339.049 100.497 339.407 101.56C339.765 102.622 339.944 103.955 339.944 105.557C339.944 107.108 339.796 108.486 339.5 109.69C339.211 110.889 338.79 111.901 338.239 112.724C337.694 113.548 337.029 114.173 336.245 114.599C335.466 115.026 334.586 115.239 333.603 115.239C332.625 115.239 331.753 115.045 330.986 114.659C330.225 114.267 329.6 113.724 329.111 113.031C328.628 112.332 328.319 111.523 328.182 110.602H330.262C330.449 111.403 330.821 112.065 331.378 112.588C331.941 113.105 332.682 113.364 333.603 113.364C334.949 113.364 336.012 112.776 336.79 111.599C337.574 110.423 337.966 108.761 337.966 106.614H337.83C337.512 107.091 337.134 107.503 336.696 107.849C336.259 108.196 335.773 108.463 335.239 108.651C334.705 108.838 334.137 108.932 333.534 108.932C332.534 108.932 331.617 108.685 330.782 108.19C329.952 107.69 329.287 107.006 328.787 106.136C328.293 105.261 328.046 104.261 328.046 103.136C328.046 102.068 328.284 101.091 328.762 100.205C329.245 99.3125 329.921 98.6023 330.79 98.0739C331.665 97.5455 332.694 97.2898 333.875 97.3068ZM333.875 99.1818C333.159 99.1818 332.515 99.3608 331.941 99.7188C331.373 100.071 330.921 100.548 330.586 101.151C330.256 101.747 330.091 102.409 330.091 103.136C330.091 103.864 330.25 104.526 330.569 105.122C330.892 105.713 331.333 106.185 331.89 106.537C332.452 106.884 333.091 107.057 333.807 107.057C334.347 107.057 334.85 106.952 335.316 106.741C335.782 106.526 336.188 106.233 336.534 105.864C336.887 105.489 337.162 105.065 337.361 104.594C337.56 104.116 337.659 103.619 337.659 103.102C337.659 102.42 337.495 101.781 337.165 101.185C336.841 100.588 336.392 100.105 335.819 99.7358C335.25 99.3665 334.603 99.1818 333.875 99.1818Z" fill="black"/>
<path d="M320.365 147.545V165H318.251V149.761H318.149L313.888 152.591V150.443L318.251 147.545H320.365ZM331.078 165.239C329.794 165.239 328.7 164.889 327.797 164.19C326.893 163.486 326.203 162.466 325.726 161.131C325.249 159.79 325.01 158.17 325.01 156.273C325.01 154.386 325.249 152.776 325.726 151.44C326.209 150.099 326.902 149.077 327.805 148.372C328.714 147.662 329.805 147.307 331.078 147.307C332.351 147.307 333.439 147.662 334.342 148.372C335.251 149.077 335.945 150.099 336.422 151.44C336.905 152.776 337.146 154.386 337.146 156.273C337.146 158.17 336.908 159.79 336.43 161.131C335.953 162.466 335.263 163.486 334.359 164.19C333.456 164.889 332.362 165.239 331.078 165.239ZM331.078 163.364C332.351 163.364 333.339 162.75 334.044 161.523C334.749 160.295 335.101 158.545 335.101 156.273C335.101 154.761 334.939 153.474 334.615 152.412C334.297 151.349 333.837 150.54 333.234 149.983C332.638 149.426 331.919 149.148 331.078 149.148C329.817 149.148 328.831 149.77 328.121 151.014C327.411 152.253 327.055 154.006 327.055 156.273C327.055 157.784 327.214 159.068 327.533 160.125C327.851 161.182 328.308 161.986 328.905 162.537C329.507 163.088 330.232 163.364 331.078 163.364Z" fill="black"/>
<path d="M324.787 242.545V260H322.673V244.761H322.571L318.31 247.591V245.443L322.673 242.545H324.787ZM335.943 242.545V260H333.83V244.761H333.727L329.466 247.591V245.443L333.83 242.545H335.943Z" fill="black"/>
<path d="M322.099 362.545V380H319.986V364.761H319.884L315.622 367.591V365.443L319.986 362.545H322.099ZM327.119 380V378.466L332.881 372.159C333.557 371.42 334.114 370.778 334.551 370.233C334.989 369.682 335.313 369.165 335.523 368.682C335.739 368.193 335.847 367.682 335.847 367.148C335.847 366.534 335.699 366.003 335.403 365.554C335.114 365.105 334.716 364.759 334.21 364.514C333.705 364.27 333.136 364.148 332.506 364.148C331.835 364.148 331.25 364.287 330.75 364.565C330.256 364.838 329.872 365.222 329.599 365.716C329.332 366.21 329.199 366.79 329.199 367.455H327.188C327.188 366.432 327.423 365.534 327.895 364.761C328.366 363.989 329.009 363.386 329.821 362.955C330.639 362.523 331.557 362.307 332.574 362.307C333.597 362.307 334.503 362.523 335.293 362.955C336.082 363.386 336.702 363.969 337.151 364.702C337.599 365.435 337.824 366.25 337.824 367.148C337.824 367.79 337.707 368.418 337.474 369.031C337.247 369.639 336.849 370.318 336.281 371.068C335.719 371.812 334.938 372.722 333.938 373.795L330.017 377.989V378.125H338.131V380H327.119Z" fill="black"/>
<path d="M321.724 462.545V480H319.611V464.761H319.509L315.247 467.591V465.443L319.611 462.545H321.724ZM332.642 480.239C331.517 480.239 330.514 480.045 329.634 479.659C328.759 479.273 328.063 478.736 327.545 478.048C327.034 477.355 326.756 476.551 326.71 475.636H328.858C328.903 476.199 329.097 476.685 329.438 477.094C329.778 477.497 330.224 477.81 330.776 478.031C331.327 478.253 331.938 478.364 332.608 478.364C333.358 478.364 334.023 478.233 334.602 477.972C335.182 477.71 335.636 477.347 335.966 476.881C336.295 476.415 336.46 475.875 336.46 475.261C336.46 474.619 336.301 474.054 335.983 473.565C335.665 473.071 335.199 472.685 334.585 472.406C333.972 472.128 333.222 471.989 332.335 471.989H330.938V470.114H332.335C333.028 470.114 333.636 469.989 334.159 469.739C334.688 469.489 335.099 469.136 335.395 468.682C335.696 468.227 335.847 467.693 335.847 467.08C335.847 466.489 335.716 465.974 335.455 465.537C335.193 465.099 334.824 464.759 334.347 464.514C333.875 464.27 333.318 464.148 332.676 464.148C332.074 464.148 331.506 464.259 330.972 464.48C330.443 464.696 330.011 465.011 329.676 465.426C329.341 465.835 329.159 466.33 329.131 466.909H327.085C327.119 465.994 327.395 465.193 327.912 464.506C328.429 463.812 329.105 463.273 329.94 462.886C330.781 462.5 331.705 462.307 332.71 462.307C333.79 462.307 334.716 462.526 335.489 462.963C336.261 463.395 336.855 463.966 337.27 464.676C337.685 465.386 337.892 466.153 337.892 466.977C337.892 467.96 337.634 468.798 337.116 469.491C336.605 470.185 335.909 470.665 335.028 470.932V471.068C336.131 471.25 336.991 471.719 337.611 472.474C338.23 473.224 338.54 474.153 338.54 475.261C338.54 476.21 338.281 477.062 337.764 477.818C337.253 478.568 336.554 479.159 335.668 479.591C334.781 480.023 333.773 480.239 332.642 480.239Z" fill="black"/>
<path d="M321.666 542.545V560H319.552V544.761H319.45L315.189 547.591V545.443L319.552 542.545H321.666ZM326.277 556.42V554.682L333.947 542.545H335.208V545.239H334.356L328.561 554.409V554.545H338.89V556.42H326.277ZM334.493 560V555.892V555.082V542.545H336.504V560H334.493Z" fill="black"/>
<path d="M4.54119 110V108.466L10.3026 102.159C10.9787 101.42 11.5355 100.778 11.973 100.233C12.4105 99.6818 12.7344 99.1648 12.9446 98.6818C13.1605 98.1932 13.2685 97.6818 13.2685 97.1477C13.2685 96.5341 13.1207 96.0028 12.8253 95.554C12.5355 95.1051 12.1378 94.7585 11.6321 94.5142C11.1264 94.2699 10.5582 94.1477 9.92756 94.1477C9.2571 94.1477 8.67188 94.2869 8.17188 94.5653C7.67756 94.8381 7.29403 95.2216 7.02131 95.7159C6.75426 96.2102 6.62074 96.7898 6.62074 97.4545H4.60938C4.60938 96.4318 4.84517 95.5341 5.31676 94.7614C5.78835 93.9886 6.4304 93.3864 7.2429 92.9545C8.06108 92.5227 8.97869 92.3068 9.99574 92.3068C11.0185 92.3068 11.9247 92.5227 12.7145 92.9545C13.5043 93.3864 14.1236 93.9687 14.5724 94.7017C15.0213 95.4347 15.2457 96.25 15.2457 97.1477C15.2457 97.7898 15.1293 98.4176 14.8963 99.0312C14.669 99.6392 14.2713 100.318 13.7031 101.068C13.1406 101.812 12.3594 102.722 11.3594 103.795L7.43892 107.989V108.125H15.5526V110H4.54119Z" fill="black"/>
<path d="M10.0639 160.239C8.93892 160.239 7.93608 160.045 7.0554 159.659C6.1804 159.273 5.48438 158.736 4.96733 158.048C4.45597 157.355 4.17756 156.551 4.1321 155.636H6.27983C6.32528 156.199 6.51847 156.685 6.85938 157.094C7.20028 157.497 7.64631 157.81 8.19744 158.031C8.74858 158.253 9.35938 158.364 10.0298 158.364C10.7798 158.364 11.4446 158.233 12.0241 157.972C12.6037 157.71 13.0582 157.347 13.3878 156.881C13.7173 156.415 13.8821 155.875 13.8821 155.261C13.8821 154.619 13.723 154.054 13.4048 153.565C13.0866 153.071 12.6207 152.685 12.0071 152.406C11.3935 152.128 10.6435 151.989 9.7571 151.989H8.35938V150.114H9.7571C10.4503 150.114 11.0582 149.989 11.581 149.739C12.1094 149.489 12.5213 149.136 12.8168 148.682C13.1179 148.227 13.2685 147.693 13.2685 147.08C13.2685 146.489 13.1378 145.974 12.8764 145.537C12.6151 145.099 12.2457 144.759 11.7685 144.514C11.2969 144.27 10.7401 144.148 10.098 144.148C9.49574 144.148 8.92756 144.259 8.39347 144.48C7.86506 144.696 7.43324 145.011 7.09801 145.426C6.76278 145.835 6.58097 146.33 6.55256 146.909H4.5071C4.54119 145.994 4.81676 145.193 5.33381 144.506C5.85085 143.812 6.52699 143.273 7.36222 142.886C8.20313 142.5 9.12642 142.307 10.1321 142.307C11.2116 142.307 12.1378 142.526 12.9105 142.963C13.6832 143.395 14.277 143.966 14.6918 144.676C15.1065 145.386 15.3139 146.153 15.3139 146.977C15.3139 147.96 15.0554 148.798 14.5384 149.491C14.027 150.185 13.331 150.665 12.4503 150.932V151.068C13.5526 151.25 14.4134 151.719 15.0327 152.474C15.652 153.224 15.9616 154.153 15.9616 155.261C15.9616 156.21 15.7031 157.062 15.1861 157.818C14.6747 158.568 13.9759 159.159 13.0895 159.591C12.2031 160.023 11.1946 160.239 10.0639 160.239Z" fill="black"/>
<path d="M3.69851 256.42V254.682L11.369 242.545H12.6303V245.239H11.7781L5.9826 254.409V254.545H16.3121V256.42H3.69851ZM11.9144 260V255.892V255.082V242.545H13.9258V260H11.9144Z" fill="black"/>
<path d="M9.96058 380.239C8.96058 380.239 8.06001 380.04 7.25888 379.642C6.45774 379.244 5.8157 378.699 5.33274 378.006C4.84979 377.312 4.58558 376.523 4.54013 375.636H6.58558C6.66513 376.426 7.02308 377.08 7.65945 377.597C8.30149 378.108 9.06854 378.364 9.96058 378.364C10.6765 378.364 11.3129 378.196 11.8697 377.861C12.4322 377.526 12.8725 377.065 13.1907 376.48C13.5146 375.889 13.6765 375.222 13.6765 374.477C13.6765 373.716 13.5089 373.037 13.1737 372.44C12.8441 371.838 12.3896 371.364 11.81 371.017C11.2305 370.67 10.5685 370.494 9.82422 370.489C9.29013 370.483 8.74183 370.565 8.17933 370.736C7.61683 370.901 7.15376 371.114 6.79013 371.375L4.81286 371.136L5.86967 362.545H14.9379V364.42H7.6424L7.02876 369.568H7.13104C7.48899 369.284 7.93786 369.048 8.47763 368.861C9.0174 368.673 9.5799 368.58 10.1651 368.58C11.2333 368.58 12.185 368.835 13.0202 369.347C13.8612 369.852 14.5202 370.545 14.9975 371.426C15.4805 372.307 15.7219 373.312 15.7219 374.443C15.7219 375.557 15.4719 376.551 14.9719 377.426C14.4776 378.295 13.7958 378.983 12.9265 379.489C12.0572 379.989 11.0685 380.239 9.96058 380.239Z" fill="black"/>
<path d="M10.114 480.239C9.39808 480.227 8.68217 480.091 7.96626 479.83C7.25036 479.568 6.59695 479.128 6.00604 478.509C5.41513 477.884 4.9407 477.04 4.58274 475.977C4.22479 474.909 4.04581 473.568 4.04581 471.955C4.04581 470.409 4.1907 469.04 4.48047 467.847C4.77024 466.648 5.1907 465.639 5.74183 464.821C6.29297 463.997 6.95774 463.372 7.73615 462.946C8.52024 462.52 9.40376 462.307 10.3867 462.307C11.364 462.307 12.2333 462.503 12.9947 462.895C13.7617 463.281 14.3867 463.821 14.8697 464.514C15.3526 465.207 15.6651 466.006 15.8072 466.909H13.7276C13.5344 466.125 13.1594 465.474 12.6026 464.957C12.0458 464.44 11.3072 464.182 10.3867 464.182C9.03445 464.182 7.96911 464.77 7.1907 465.946C6.41797 467.122 6.02876 468.773 6.02308 470.898H6.15945C6.47763 470.415 6.85547 470.003 7.29297 469.662C7.73615 469.315 8.22479 469.048 8.75888 468.861C9.29297 468.673 9.85831 468.58 10.4549 468.58C11.4549 468.58 12.3697 468.83 13.1992 469.33C14.0288 469.824 14.6935 470.509 15.1935 471.384C15.6935 472.253 15.9435 473.25 15.9435 474.375C15.9435 475.455 15.7021 476.443 15.2191 477.341C14.7362 478.233 14.0572 478.943 13.1822 479.472C12.3129 479.994 11.2901 480.25 10.114 480.239ZM10.114 478.364C10.8299 478.364 11.4719 478.185 12.0401 477.827C12.614 477.469 13.0657 476.989 13.3952 476.386C13.7305 475.784 13.8981 475.114 13.8981 474.375C13.8981 473.653 13.7362 472.997 13.4123 472.406C13.0941 471.81 12.6538 471.335 12.0913 470.983C11.5344 470.631 10.8981 470.455 10.1822 470.455C9.6424 470.455 9.13956 470.562 8.67365 470.778C8.20774 470.989 7.79865 471.278 7.44638 471.648C7.09979 472.017 6.82706 472.44 6.6282 472.918C6.42933 473.389 6.3299 473.886 6.3299 474.409C6.3299 475.102 6.49183 475.75 6.8157 476.352C7.14524 476.955 7.59411 477.44 8.16229 477.81C8.73615 478.179 9.38672 478.364 10.114 478.364Z" fill="black"/>
<path d="M5.4968 560L13.3036 544.557V544.42H4.30362V542.545H15.4854V544.523L7.71271 560H5.4968Z" fill="black"/>
</g>
<defs>
<clipPath id="clip0_0_1">
<rect width="340" height="700" fill="white"/>
</clipPath>
</defs>
</svg>
